<svg width="36" height="31" viewBox="0 0 36 31" fill="none" xmlns="http://www.w3.org/2000/svg">
<g filter="url(#filter0_d_138_38716)">
<g clip-path="url(#clip0_138_38716)">
<path fill-rule="evenodd" clip-rule="evenodd" d="M6 3H30V21H6V3Z" fill="#FFE800"/>
<path fill-rule="evenodd" clip-rule="evenodd" d="M6 12H30V21H6V12Z" fill="#00148E"/>
<path fill-rule="evenodd" clip-rule="evenodd" d="M6 16.5H30V21H6V16.5Z" fill="#DA0010"/>
<path fill-rule="evenodd" clip-rule="evenodd" d="M16.11 13.905L13.3875 16.7737L13.3425 16.7137L16.0575 13.845L16.1025 13.905H16.11ZM18 14.3737L14.445 18.1237L14.385 18.0637L17.9363 14.3137L18 14.3737Z" fill="black"/>
<path fill-rule="evenodd" clip-rule="evenodd" d="M14.4558 18.0798L14.1236 18.4121L13.7448 18.6979L14.0306 18.3192L14.3629 17.9869L14.4558 18.0798Z" fill="#808080" stroke="black" stroke-width="0.0401739"/>
<path fill-rule="evenodd" clip-rule="evenodd" d="M13.5408 16.6138L13.2085 16.946L12.8298 17.2318L13.1156 16.8531L13.4478 16.5208L13.5408 16.6138Z" fill="#808080" stroke="black" stroke-width="0.0401739"/>
<path fill-rule="evenodd" clip-rule="evenodd" d="M13.7978 7.30469C13.7978 7.30469 13.4991 15.3831 14.6939 15.3831C15.8886 15.3831 16.4877 14.5335 16.4877 14.5335L16.4742 10.0935L13.7978 7.30469Z" fill="#FFDF00" stroke="black" stroke-width="0.0592558"/>
<path fill-rule="evenodd" clip-rule="evenodd" d="M14.5283 8.05835C14.5283 8.48315 14.395 14.5335 14.9924 14.5335C15.5898 14.5335 16.4875 14.1087 16.4875 14.1087L16.474 10.0935L14.5283 8.05835Z" fill="#0000C4" stroke="black" stroke-width="0.0592558"/>
<path fill-rule="evenodd" clip-rule="evenodd" d="M14.9165 8.46631C14.9165 8.89111 14.9924 13.6839 15.5915 13.6839H16.4876L16.4741 10.0935L14.9165 8.46631Z" fill="#E10000" stroke="black" stroke-width="0.0592558"/>
<path fill-rule="evenodd" clip-rule="evenodd" d="M13.7324 7.35004L16.4474 10.2188L16.4962 10.1588L13.7812 7.29004L13.7324 7.35004Z" fill="black"/>
<path fill-rule="evenodd" clip-rule="evenodd" d="M12.911 8.96021C12.911 8.96021 12.1411 16.7862 14.4509 16.7862C16.3758 16.7862 16.3758 15.5516 16.7608 15.5516L16.3758 12.6686L12.9089 8.96021H12.911Z" fill="#FFDF00" stroke="black" stroke-width="0.0662132"/>
<path d="M14.8192 10.2613C14.8357 10.2601 15.42 8.99576 16.8802 8.19547" stroke="black" stroke-width="0.0717282"/>
<path fill-rule="evenodd" clip-rule="evenodd" d="M14.5803 9.06955C14.7839 9.16458 14.9127 9.27393 15.03 9.40143C14.797 9.3526 14.6768 9.33288 14.4732 9.23785C14.2695 9.14283 14.114 8.99748 13.9904 8.87988C14.142 8.926 14.3755 8.974 14.5803 9.06955Z" fill="#005B00" stroke="black" stroke-width="0.0324425"/>
<path fill-rule="evenodd" clip-rule="evenodd" d="M15.0909 9.84387C15.1059 9.86937 15.093 9.9053 15.0612 9.92292C15.0295 9.94055 14.9915 9.93376 14.9761 9.90762C14.9607 9.88148 14.9744 9.84683 15.0061 9.82921C15.0378 9.81158 15.0759 9.81837 15.0909 9.84387Z" fill="#FF0000" stroke="black" stroke-width="0.0222517"/>
<path fill-rule="evenodd" clip-rule="evenodd" d="M15.7309 8.26014C15.6426 8.48412 15.5453 8.63172 15.4331 8.76942C15.4835 8.52024 15.5049 8.39232 15.5932 8.16834C15.6814 7.94435 15.8102 7.76457 15.9143 7.62147C15.8693 7.78527 15.8196 8.03491 15.7309 8.26014Z" fill="#005B00" stroke="black" stroke-width="0.0305855"/>
<path fill-rule="evenodd" clip-rule="evenodd" d="M15.4329 8.24841C15.4126 8.4724 15.3679 8.64588 15.3093 8.82183C15.294 8.60414 15.2825 8.49535 15.3029 8.27136C15.3232 8.04738 15.3857 7.82935 15.4367 7.65475C15.4374 7.80561 15.4534 8.02319 15.4329 8.24841Z" fill="#005B00" stroke="black" stroke-width="0.0264082"/>
<path fill-rule="evenodd" clip-rule="evenodd" d="M15.6275 8.50474C15.5121 8.64049 15.4151 8.69937 15.3131 8.73762C15.4159 8.54937 15.4662 8.44924 15.5816 8.31349C15.697 8.17774 15.8207 8.11399 15.92 8.06449C15.8461 8.17905 15.7436 8.36824 15.6275 8.50474Z" fill="#005B00" stroke="black" stroke-width="0.028684"/>
<path fill-rule="evenodd" clip-rule="evenodd" d="M14.6445 8.69448C14.7802 8.85738 14.8477 9.01428 14.8987 9.18768C14.721 9.06678 14.6272 9.01038 14.4915 8.84748C14.3557 8.68458 14.2792 8.48058 14.2192 8.31618C14.3295 8.41053 14.508 8.53068 14.6445 8.69448Z" fill="#005B00" stroke="black" stroke-width="0.0328223"/>
<path fill-rule="evenodd" clip-rule="evenodd" d="M14.3712 9.95012C14.5409 10.0859 14.6304 10.2258 14.7018 10.3839C14.486 10.2944 14.3726 10.2542 14.2029 10.1184C14.0332 9.98267 13.9299 9.79907 13.8486 9.65087C13.9839 9.7249 14.2006 9.81362 14.3712 9.95012Z" fill="#005B00" stroke="black" stroke-width="0.0348485"/>
<path fill-rule="evenodd" clip-rule="evenodd" d="M15.1659 9.8755C15.0302 10.0927 14.8833 10.2386 14.715 10.3763C14.7962 10.1381 14.8313 10.0162 14.967 9.799C15.1028 9.5818 15.2966 9.4033 15.4532 9.2611C15.3826 9.41852 15.3024 9.6571 15.1659 9.8755Z" fill="#005B00" stroke="black" stroke-width="0.0357995"/>
<path fill-rule="evenodd" clip-rule="evenodd" d="M15.3077 9.86679C15.0905 10.0161 14.9014 10.0938 14.7 10.155C14.8857 9.96369 14.9757 9.86311 15.1929 9.71379C15.4101 9.56446 15.6524 9.47521 15.8471 9.40501C15.7112 9.52456 15.5261 9.71664 15.3077 9.86679Z" fill="#005B00" stroke="black" stroke-width="0.0344037"/>
<path fill-rule="evenodd" clip-rule="evenodd" d="M16.7721 8.30596C16.6771 8.41456 16.5919 8.47891 16.5001 8.53501C16.5783 8.40541 16.6159 8.33806 16.7109 8.22946C16.8059 8.12086 16.9156 8.04436 17.0038 7.98376C16.9456 8.06678 16.8676 8.19676 16.7721 8.30596Z" fill="#005B00" stroke="black" stroke-width="0.0182192"/>
<path fill-rule="evenodd" clip-rule="evenodd" d="M16.5661 7.98576C16.5118 8.10114 16.4538 8.18784 16.3875 8.27454C16.4208 8.15916 16.4353 8.10114 16.4896 7.98576C16.5439 7.87037 16.6204 7.76199 16.6822 7.67529C16.6537 7.75434 16.6207 7.86973 16.5661 7.98576Z" fill="#005B00" stroke="black" stroke-width="0.0151349"/>
<path fill-rule="evenodd" clip-rule="evenodd" d="M16.884 8.19265C16.7889 8.24695 16.7175 8.2636 16.6461 8.2687C16.7412 8.185 16.7889 8.13985 16.884 8.08555C16.979 8.03125 17.0682 8.01595 17.1396 8.00455C17.0745 8.05383 16.9795 8.13805 16.884 8.19265Z" fill="#005B00" stroke="black" stroke-width="0.0165898"/>
<path fill-rule="evenodd" clip-rule="evenodd" d="M15.5728 8.80112C15.4031 8.90293 15.2636 8.96218 15.1182 9.01318C15.2732 8.89037 15.3496 8.82643 15.5193 8.72462C15.689 8.62281 15.8662 8.55268 16.0084 8.49718C15.8982 8.57556 15.7434 8.69875 15.5728 8.80112Z" fill="#005B00" stroke="black" stroke-width="0.0208298"/>
<path fill-rule="evenodd" clip-rule="evenodd" d="M16.0681 8.95323C15.8441 9.08898 15.6534 9.15303 15.4519 9.19893C15.6486 9.01698 15.7446 8.92068 15.9686 8.78493C16.1926 8.64918 16.4361 8.57778 16.6317 8.52198C16.4895 8.63395 16.2933 8.81673 16.0681 8.95323Z" fill="#005B00" stroke="black" stroke-width="0.0346726"/>
<path d="M14.5457 11.1501C14.5602 11.1418 14.4237 9.95084 15.3348 8.71199" stroke="black" stroke-width="0.0706036"/>
<path fill-rule="evenodd" clip-rule="evenodd" d="M15.9422 8.64001C15.9572 8.66551 15.9443 8.70144 15.9125 8.71906C15.8808 8.73669 15.8428 8.7299 15.8274 8.70376C15.812 8.67763 15.8257 8.64298 15.8574 8.62535C15.8891 8.60773 15.9272 8.61451 15.9422 8.64001Z" fill="#FF0000" stroke="black" stroke-width="0.0222517"/>
<path fill-rule="evenodd" clip-rule="evenodd" d="M16.3472 8.40369C16.3622 8.42919 16.3493 8.46511 16.3176 8.48274C16.2859 8.50036 16.2478 8.49357 16.2325 8.46744C16.2171 8.4413 16.2307 8.40665 16.2625 8.38902C16.2942 8.3714 16.3322 8.37819 16.3472 8.40369Z" fill="#FF0000" stroke="black" stroke-width="0.0222517"/>
<path fill-rule="evenodd" clip-rule="evenodd" d="M15.217 9.19767C15.2275 9.21717 15.2079 9.24799 15.1727 9.26562C15.1374 9.28324 15.1002 9.28141 15.0895 9.26142C15.0787 9.24143 15.0988 9.21158 15.1341 9.19396C15.1693 9.17633 15.2065 9.17817 15.217 9.19767Z" fill="#FF0000" stroke="black" stroke-width="0.0200628"/>
<path fill-rule="evenodd" clip-rule="evenodd" d="M15.3371 9.14518C15.3476 9.16468 15.328 9.1955 15.2928 9.21313C15.2575 9.23075 15.2204 9.22891 15.2096 9.20893C15.1988 9.18894 15.2189 9.15909 15.2542 9.14146C15.2894 9.12384 15.3266 9.12568 15.3371 9.14518Z" fill="#FF0000" stroke="black" stroke-width="0.0200628"/>
<path fill-rule="evenodd" clip-rule="evenodd" d="M15.2658 9.25773C15.2763 9.27723 15.2567 9.30805 15.2215 9.32568C15.1862 9.3433 15.1491 9.34146 15.1383 9.32148C15.1275 9.30149 15.1476 9.27164 15.1829 9.25401C15.2181 9.23639 15.2553 9.23823 15.2658 9.25773Z" fill="#FF0000" stroke="black" stroke-width="0.0200628"/>
<path fill-rule="evenodd" clip-rule="evenodd" d="M15.4763 9.27381C15.4913 9.30381 15.4763 9.34131 15.4388 9.36006C15.4013 9.37881 15.3638 9.36756 15.3488 9.33381C15.3338 9.30006 15.3488 9.26631 15.3863 9.24756C15.4238 9.22881 15.4613 9.24006 15.4725 9.27381H15.4763Z" fill="#FF0000" stroke="black" stroke-width="0.0248437"/>
<path fill-rule="evenodd" clip-rule="evenodd" d="M15.5624 9.18369C15.5737 9.21369 15.5624 9.25119 15.5249 9.26994C15.4874 9.28869 15.4499 9.27744 15.4312 9.24744C15.4124 9.21744 15.4312 9.17619 15.4687 9.15744C15.5062 9.13869 15.5437 9.15369 15.5587 9.18369H15.5624Z" fill="#FF0000" stroke="black" stroke-width="0.0248437"/>
<path fill-rule="evenodd" clip-rule="evenodd" d="M15.5812 9.22503C15.5962 9.25503 15.5812 9.29628 15.5437 9.31128C15.5062 9.32628 15.4687 9.31878 15.4537 9.28878C15.4387 9.25878 15.4537 9.22128 15.4912 9.20253C15.5287 9.18378 15.5662 9.19503 15.5812 9.22503Z" fill="#FF0000" stroke="black" stroke-width="0.0248437"/>
<path fill-rule="evenodd" clip-rule="evenodd" d="M13.6812 9.7854C13.6812 10.1969 12.9112 14.7284 14.8383 15.9629C15.6082 16.3745 16.7632 15.5514 16.7632 15.9629L16.3782 12.6684L13.6812 9.7854Z" fill="#0000C4" stroke="black" stroke-width="0.0662132"/>
<path fill-rule="evenodd" clip-rule="evenodd" d="M14.4511 10.6084C14.4511 11.0199 14.0661 14.3144 15.2232 15.1398C15.9932 15.9629 17.9202 15.7397 17.9202 15.7397L16.3782 12.6683L14.4511 10.6084Z" fill="#E10000" stroke="black" stroke-width="0.0662132"/>
<path fill-rule="evenodd" clip-rule="evenodd" d="M12.8926 8.9249L16.4476 12.6749L16.5113 12.6149L12.9563 8.86865L12.8963 8.92865L12.8926 8.9249Z" fill="black"/>
<path fill-rule="evenodd" clip-rule="evenodd" d="M12.3455 8.48048L12.5712 8.52031L12.6376 8.58668C12.6285 8.58601 12.7039 8.65306 12.611 8.74598C12.5181 8.83891 12.3859 8.70563 12.3859 8.70563C12.3859 8.70563 12.4257 8.93131 12.5588 9.06443C12.6919 9.19756 12.8509 9.17063 12.8509 9.17063C12.8509 9.17063 12.6996 9.04666 12.811 8.94496C12.9226 8.84236 12.9703 8.91841 12.9703 8.91841L13.1031 9.05116L13.1965 8.95771L12.6652 8.42633L12.6253 8.20066L12.283 8.14396L12.3457 8.47958L12.3455 8.48048Z" fill="#CECECC" stroke="black" stroke-width="0.0184762"/>
<path fill-rule="evenodd" clip-rule="evenodd" d="M12.8691 6.90459L13.1422 7.32789L13.4879 7.42119L13.2622 7.56721L13.6737 7.55394L13.8601 7.68706L13.9269 7.58026L13.74 7.44676L13.5943 7.03464L13.5541 7.31401L13.3416 7.00771L12.869 6.90361L12.8691 6.90459Z" fill="#CECECC" stroke="black" stroke-width="0.0198939"/>
<path fill-rule="evenodd" clip-rule="evenodd" d="M13.98 7.15879C13.98 7.18129 13.95 7.20042 13.9155 7.20042C13.881 7.20042 13.8495 7.18129 13.8495 7.15879C13.8495 7.13629 13.8795 7.11604 13.9155 7.11604C13.9515 7.11604 13.98 7.13517 13.98 7.15879ZM13.887 7.24767C13.887 7.65042 14.2005 9.36042 14.226 9.40204C14.2275 9.45267 14.154 9.47404 14.1195 9.41217C14.0205 9.21642 13.8075 7.61217 13.8 7.23754C13.7955 7.08342 13.8555 7.07104 13.9245 7.07442C13.98 7.07667 14.049 7.11604 14.049 7.16329C14.049 7.21954 13.962 7.26117 13.887 7.24767Z" fill="#E10000" stroke="black" stroke-width="0.0382495"/>
<path fill-rule="evenodd" clip-rule="evenodd" d="M14.1 7.5581C14.0888 7.5806 14.0507 7.59223 14.0179 7.5836C13.9851 7.57498 13.9648 7.54798 13.976 7.52548C13.9873 7.50298 14.0259 7.49023 14.0601 7.49923C14.0943 7.50823 14.1118 7.53448 14.1 7.5581ZM13.9672 7.62373C14.0707 8.4326 13.7235 9.68173 13.7264 9.73085C13.703 9.78073 13.622 9.78485 13.6207 9.71323C13.6036 9.66673 14.0033 8.53835 13.8896 7.59185C13.9624 7.4366 14.0256 7.43923 14.0895 7.45985C14.1411 7.47598 14.1869 7.5326 14.1633 7.57985C14.1352 7.6361 14.0317 7.65598 13.9672 7.62373Z" fill="#0000C4" stroke="black" stroke-width="0.0400852"/>
<path fill-rule="evenodd" clip-rule="evenodd" d="M13.0013 8.68113C13.0013 8.71863 12.9638 8.75613 12.9188 8.75613C12.8738 8.75613 12.8363 8.71863 12.8363 8.68113C12.8363 8.64363 12.8738 8.61363 12.9188 8.61363C12.9638 8.61363 12.9976 8.64363 12.9976 8.68113H13.0013ZM12.8813 8.83113C12.8813 9.50238 13.2751 12.3524 13.3051 12.4236C13.3051 12.5061 13.2188 12.5436 13.1738 12.4386C13.0501 12.1124 12.7838 9.43863 12.7726 8.81613C12.7688 8.55738 12.8438 8.53863 12.9301 8.54238C13.0013 8.54613 13.0838 8.61363 13.0838 8.69238C13.0838 8.78238 12.9751 8.85363 12.8813 8.83113Z" fill="#E10000" stroke="black" stroke-width="0.0579687"/>
<path fill-rule="evenodd" clip-rule="evenodd" d="M13.2037 9.02752C13.1887 9.06352 13.1399 9.08287 13.0985 9.06993C13.0571 9.05699 13.0321 9.01458 13.0471 8.97858C13.0621 8.94258 13.1116 8.92143 13.1548 8.93493C13.198 8.94843 13.2194 8.98972 13.2037 9.02752ZM13.0328 9.13484C13.1393 10.4172 12.6592 12.4094 12.6613 12.4873C12.6301 12.5671 12.5269 12.5755 12.5275 12.4618C12.5072 12.3883 13.0504 10.5868 12.9352 9.08602C13.0325 8.83773 13.1128 8.84043 13.1933 8.8717C13.2584 8.89612 13.315 8.98499 13.2835 9.06059C13.246 9.15059 13.1138 9.18457 13.0328 9.13484Z" fill="#0000C4" stroke="black" stroke-width="0.0564642"/>
<path fill-rule="evenodd" clip-rule="evenodd" d="M19.89 13.905L22.6087 16.7737L22.6575 16.7137L19.9388 13.845L19.89 13.905ZM18 14.3737L21.555 18.1237L21.615 18.0637L18.0638 14.3137L18 14.3737Z" fill="black"/>
<path fill-rule="evenodd" clip-rule="evenodd" d="M21.5439 18.0798L21.8762 18.4121L22.2549 18.6979L21.9691 18.3192L21.6369 17.9869L21.5439 18.0798Z" fill="#808080" stroke="black" stroke-width="0.0401739"/>
<path fill-rule="evenodd" clip-rule="evenodd" d="M22.459 16.6138L22.7912 16.946L23.1699 17.2318L22.8842 16.8531L22.5519 16.5208L22.459 16.6138Z" fill="#808080" stroke="black" stroke-width="0.0401739"/>
<path fill-rule="evenodd" clip-rule="evenodd" d="M22.2022 7.30469C22.2022 7.30469 22.5009 15.3831 21.3061 15.3831C20.1114 15.3831 19.5123 14.5335 19.5123 14.5335L19.5258 10.0935L22.2022 7.30469Z" fill="#FFDF00" stroke="black" stroke-width="0.0592558"/>
<path fill-rule="evenodd" clip-rule="evenodd" d="M21.4714 8.05835C21.4714 8.48315 21.6047 14.5335 21.0074 14.5335C20.41 14.5335 19.5122 14.1087 19.5122 14.1087L19.5257 10.0935L21.4714 8.05835Z" fill="#0000C4" stroke="black" stroke-width="0.0592558"/>
<path fill-rule="evenodd" clip-rule="evenodd" d="M21.0835 8.46631C21.0835 8.89111 21.0076 13.6839 20.4085 13.6839H19.5124L19.5259 10.0935L21.0835 8.46631Z" fill="#E10000" stroke="black" stroke-width="0.0592558"/>
<path fill-rule="evenodd" clip-rule="evenodd" d="M22.2674 7.35004L19.5524 10.2188L19.5037 10.1588L22.2187 7.29004L22.2674 7.35004Z" fill="black"/>
<path fill-rule="evenodd" clip-rule="evenodd" d="M20.1243 9.5653C20.1243 9.5653 20.8854 10.5418 21.2526 11.2965C21.6195 12.0528 22.0479 13.2051 22.0479 13.2051C22.0479 13.2051 21.8031 12.0706 21.3411 11.161C20.7357 10.0168 20.124 9.6304 20.1243 9.5653Z" fill="#005B00" stroke="black" stroke-width="0.0276486"/>
<path fill-rule="evenodd" clip-rule="evenodd" d="M20.098 8.7897C20.098 8.7897 20.9474 9.99739 21.335 10.8931C21.7222 11.7905 22.1533 13.1356 22.1533 13.1356C22.1533 13.1356 21.9441 11.8415 21.4532 10.7586C20.8062 9.39233 20.0926 8.86152 20.098 8.7897Z" fill="#005B00" stroke="black" stroke-width="0.0319475"/>
<path fill-rule="evenodd" clip-rule="evenodd" d="M20.831 7.59547C20.831 7.59547 21.4319 9.38385 21.615 10.4897C21.7971 11.5966 21.9084 13.1198 21.9084 13.1198C21.9084 13.1198 22.0241 11.8414 21.7787 10.4842C21.4391 8.74672 20.8061 7.6509 20.831 7.59547Z" fill="#005B00" stroke="black" stroke-width="0.0362876"/>
<path fill-rule="evenodd" clip-rule="evenodd" d="M20.2915 7.51373C20.2915 7.51373 21.1236 9.10196 21.4477 10.1813C21.7709 11.2621 22.0749 12.8214 22.0749 12.8214C22.0749 12.8214 22.031 11.4049 21.6123 10.0911C21.0507 8.42205 20.2733 7.58539 20.2915 7.51373Z" fill="#005B00" stroke="black" stroke-width="0.0367712"/>
<path fill-rule="evenodd" clip-rule="evenodd" d="M21.2909 8.01911C21.2909 8.01911 21.7049 9.72911 21.809 10.7493C21.9122 11.7702 21.9417 13.1475 21.9417 13.1475C21.9417 13.1475 22.0856 12.0328 21.9412 10.7767C21.7359 9.16361 21.2686 8.06351 21.2909 8.01911Z" fill="#005B00" stroke="black" stroke-width="0.0326094"/>
<path fill-rule="evenodd" clip-rule="evenodd" d="M20.1965 8.06616C20.1965 8.06616 21.0014 9.42666 21.3272 10.3777C21.6522 11.3302 21.9722 12.7222 21.9722 12.7222C21.9722 12.7222 21.8945 11.4322 21.4758 10.2772C20.9166 8.81316 20.1817 8.13366 20.1965 8.06616Z" fill="#005B00" stroke="black" stroke-width="0.033538"/>
<path fill-rule="evenodd" clip-rule="evenodd" d="M20.0455 9.01379C20.0455 9.01379 20.8949 10.0923 21.2825 10.9183C21.6697 11.746 22.1008 13.0028 22.1008 13.0028C22.1008 13.0028 21.8916 11.7715 21.4007 10.7754C20.7538 9.52131 20.0401 9.08395 20.0455 9.01379Z" fill="#005B00" stroke="black" stroke-width="0.0315945"/>
<path fill-rule="evenodd" clip-rule="evenodd" d="M20.1559 8.51826C20.1559 8.51826 20.9372 9.78707 21.2773 10.7049C21.6169 11.6243 21.9784 12.9882 21.9784 12.9882C21.9784 12.9882 21.8336 11.6957 21.4005 10.584C20.8268 9.17863 20.1471 8.58834 20.1559 8.51826Z" fill="#005B00" stroke="black" stroke-width="0.0315267"/>
<path fill-rule="evenodd" clip-rule="evenodd" d="M21.0019 7.62259C21.0019 7.62259 21.5042 9.3735 21.6287 10.4429C21.7522 11.5131 21.7844 12.9762 21.7844 12.9762C21.7844 12.9762 21.9638 11.763 21.7906 10.4492C21.5437 8.76536 20.9745 7.67378 21.0019 7.62259Z" fill="#005B00" stroke="black" stroke-width="0.0352737"/>
<path fill-rule="evenodd" clip-rule="evenodd" d="M20.3125 7.18613C20.3125 7.18613 21.046 8.83549 21.3115 9.9369C21.5761 11.0398 21.8011 12.6179 21.8011 12.6179C21.8011 12.6179 21.8209 11.203 21.4744 9.86029C21.0055 8.1522 20.2918 7.25606 20.3125 7.18613Z" fill="#005B00" stroke="black" stroke-width="0.0362643"/>
<path fill-rule="evenodd" clip-rule="evenodd" d="M21.4805 8.14435C21.4805 8.14435 21.796 9.78633 21.8414 10.759C21.886 11.7322 21.8366 13.04 21.8366 13.04C21.8366 13.04 22.0441 11.9898 21.9719 10.7914C21.8594 9.2515 21.4557 8.18538 21.4805 8.14435Z" fill="#005B00" stroke="black" stroke-width="0.0313549"/>
<path fill-rule="evenodd" clip-rule="evenodd" d="M20.2187 7.86625C20.2187 7.86625 20.9522 9.28787 21.2177 10.261C21.4823 11.2355 21.7073 12.6463 21.7073 12.6463C21.7073 12.6463 21.7271 11.3579 21.3806 10.1741C20.9117 8.671 20.198 7.93202 20.2187 7.86625Z" fill="#005B00" stroke="black" stroke-width="0.0342706"/>
<path fill-rule="evenodd" clip-rule="evenodd" d="M23.089 8.95996C23.089 8.95996 23.8589 16.7859 21.5491 16.7859C19.6242 16.7859 19.6242 15.5513 19.2392 15.5513L19.6242 12.6683L23.0911 8.95996H23.089Z" fill="#FFDF00" stroke="black" stroke-width="0.0662132"/>
<path fill-rule="evenodd" clip-rule="evenodd" d="M22.3188 9.7854C22.3188 10.1969 23.0888 14.7284 21.1617 15.9629C20.3918 16.3745 19.2368 15.5514 19.2368 15.9629L19.6218 12.6684L22.3188 9.7854Z" fill="#0000C4" stroke="black" stroke-width="0.0662132"/>
<path fill-rule="evenodd" clip-rule="evenodd" d="M21.5489 10.6084C21.5489 11.0199 21.9339 14.3144 20.7768 15.1398C20.0068 15.9629 18.0798 15.7397 18.0798 15.7397L19.6218 12.6683L21.5489 10.6084Z" fill="#E10000" stroke="black" stroke-width="0.0662132"/>
<path fill-rule="evenodd" clip-rule="evenodd" d="M23.1075 8.9249L19.5525 12.6749L19.4888 12.6149L23.0438 8.86865L23.1075 8.92865V8.9249Z" fill="black"/>
<path fill-rule="evenodd" clip-rule="evenodd" d="M23.6545 8.48048L23.4288 8.52031L23.3624 8.58668C23.3715 8.58601 23.2961 8.65306 23.389 8.74598C23.4819 8.83891 23.6141 8.70563 23.6141 8.70563C23.6141 8.70563 23.5743 8.93131 23.4412 9.06443C23.3081 9.19756 23.1491 9.17063 23.1491 9.17063C23.1491 9.17063 23.3004 9.04666 23.189 8.94496C23.0774 8.84236 23.0297 8.91841 23.0297 8.91841L22.8969 9.05116L22.8035 8.95771L23.3348 8.42633L23.3747 8.20066L23.717 8.14396L23.6543 8.47958L23.6545 8.48048Z" fill="#CECECC" stroke="black" stroke-width="0.0184762"/>
<path fill-rule="evenodd" clip-rule="evenodd" d="M23.1309 6.90459L22.8578 7.32789L22.5121 7.42119L22.7378 7.56721L22.3263 7.55394L22.1399 7.68706L22.0731 7.58026L22.26 7.44676L22.4057 7.03464L22.4459 7.31401L22.6584 7.00771L23.131 6.90361L23.1309 6.90459Z" fill="#CECECC" stroke="black" stroke-width="0.0198939"/>
<path fill-rule="evenodd" clip-rule="evenodd" d="M22.0236 7.15879C22.0236 7.18129 22.0536 7.20042 22.0881 7.20042C22.1226 7.20042 22.1541 7.18129 22.1541 7.15879C22.1541 7.13629 22.1241 7.11604 22.0881 7.11604C22.0521 7.11604 22.0236 7.13517 22.0236 7.15879ZM22.1166 7.24767C22.1166 7.65042 21.8031 9.36042 21.7776 9.40204C21.7761 9.45267 21.8496 9.47404 21.8841 9.41217C21.9831 9.21642 22.1961 7.61217 22.2036 7.23754C22.2081 7.08342 22.1481 7.07104 22.0791 7.07442C22.0236 7.07667 21.9546 7.11604 21.9546 7.16329C21.9546 7.21954 22.0416 7.26117 22.1166 7.24767Z" fill="#E10000" stroke="black" stroke-width="0.0382495"/>
<path fill-rule="evenodd" clip-rule="evenodd" d="M21.9 7.5581C21.9112 7.5806 21.9493 7.59223 21.9821 7.5836C22.0149 7.57498 22.0352 7.54798 22.024 7.52548C22.0127 7.50298 21.9741 7.49023 21.9399 7.49923C21.9057 7.50823 21.8882 7.53448 21.9 7.5581ZM22.0328 7.62373C21.9293 8.4326 22.2765 9.68173 22.2736 9.73085C22.297 9.78073 22.378 9.78485 22.3793 9.71323C22.3964 9.66673 21.9967 8.53835 22.1104 7.59185C22.0376 7.4366 21.9744 7.43923 21.9105 7.45985C21.8589 7.47598 21.8131 7.5326 21.8367 7.57985C21.8648 7.6361 21.9683 7.65598 22.0328 7.62373Z" fill="#0000C4" stroke="black" stroke-width="0.0400852"/>
<path fill-rule="evenodd" clip-rule="evenodd" d="M23.0026 8.68113C23.0026 8.71863 23.0401 8.75613 23.0813 8.75613C23.1263 8.75613 23.1638 8.71863 23.1638 8.68113C23.1638 8.64363 23.1263 8.61363 23.0813 8.61363C23.0363 8.61363 23.0026 8.64363 23.0026 8.68113ZM23.1151 8.83113C23.0253 10.034 22.8852 11.2325 22.6951 12.4236C22.6951 12.5061 22.7813 12.5436 22.8263 12.4386C22.9501 12.1124 23.2163 9.43863 23.2276 8.81613C23.2313 8.55738 23.1563 8.53863 23.0701 8.54238C22.9988 8.54613 22.9163 8.61363 22.9163 8.69238C22.9163 8.78238 23.0251 8.85363 23.1188 8.83113H23.1151Z" fill="#E10000" stroke="black" stroke-width="0.0579687"/>
<path fill-rule="evenodd" clip-rule="evenodd" d="M22.7963 9.02752C22.8113 9.06352 22.8601 9.08287 22.9015 9.06993C22.9429 9.05699 22.9679 9.01458 22.9529 8.97858C22.9379 8.94258 22.8884 8.92143 22.8452 8.93493C22.802 8.94843 22.7806 8.98972 22.7963 9.02752ZM22.9672 9.13484C22.8607 10.4172 23.3408 12.4094 23.3387 12.4873C23.3699 12.5671 23.4731 12.5755 23.4725 12.4618C23.4928 12.3883 22.9496 10.5868 23.0648 9.08602C22.9675 8.83773 22.8872 8.84043 22.8067 8.8717C22.7416 8.89612 22.685 8.98499 22.7165 9.06059C22.754 9.15059 22.8862 9.18457 22.9672 9.13484Z" fill="#0000C4" stroke="black" stroke-width="0.0564642"/>
<path fill-rule="evenodd" clip-rule="evenodd" d="M16.7651 18.8458C16.9408 18.9537 17.1399 19.0105 17.3426 19.0105C17.5452 19.0105 17.7443 18.9537 17.92 18.8458V15.5513H17.1501C17.5351 16.7858 17.5351 18.0227 16.7629 18.8458H16.7651Z" fill="#E10000" stroke="black" stroke-width="0.0662132"/>
<path fill-rule="evenodd" clip-rule="evenodd" d="M17.375 15.6242C17.375 17.9473 16.8171 18.4645 16.8171 18.9317C17.0495 18.9317 17.2043 18.7138 17.375 18.4146C17.6073 17.9473 17.6296 15.5875 17.6073 15.6242H17.375Z" fill="#0000C4" stroke="black" stroke-width="0.0546535"/>
<path fill-rule="evenodd" clip-rule="evenodd" d="M16.9102 15.6243C16.8984 16.9815 16.3222 18.2388 16.4312 18.5171C16.5546 18.7665 16.9102 17.9475 17.3749 18.4121C17.6072 17.9475 17.6295 15.5876 17.6072 15.6217H16.9102V15.6243Z" fill="#0000C4" stroke="black" stroke-width="0.0546535"/>
<path fill-rule="evenodd" clip-rule="evenodd" d="M16.9624 15.4263C16.9624 16.9529 16.4282 17.0547 16.4282 17.4618C16.6605 17.4618 16.9611 17.2393 16.9624 17.26C17.1947 16.9529 17.217 15.4022 17.1947 15.4263H16.9624Z" fill="#FFDF00" stroke="black" stroke-width="0.0443045"/>
<path fill-rule="evenodd" clip-rule="evenodd" d="M16.4977 15.4263C16.4859 16.3181 15.9229 17.0771 16.0318 17.26C16.1565 17.4221 16.4977 16.9529 16.9624 17.26C17.1947 16.9529 17.217 15.4022 17.1947 15.4263H16.4977Z" fill="#FFDF00" stroke="black" stroke-width="0.0443045"/>
<path fill-rule="evenodd" clip-rule="evenodd" d="M19.2349 18.8458C19.0592 18.9537 18.8601 19.0105 18.6574 19.0105C18.4548 19.0105 18.2557 18.9537 18.08 18.8458V15.5513H18.8499C18.4649 16.7858 18.4649 18.0227 19.2371 18.8458H19.2349Z" fill="#E10000" stroke="black" stroke-width="0.0662132"/>
<path fill-rule="evenodd" clip-rule="evenodd" d="M18.625 15.6242C18.625 17.9473 19.1829 18.4645 19.1829 18.9317C18.9505 18.9317 18.7957 18.7138 18.625 18.4146C18.3927 17.9473 18.3704 15.5875 18.3927 15.6242H18.625Z" fill="#0000C4" stroke="black" stroke-width="0.0546535"/>
<path fill-rule="evenodd" clip-rule="evenodd" d="M19.0898 15.6243C19.1016 16.9815 19.6778 18.2388 19.5688 18.5171C19.4454 18.7665 19.0898 17.9475 18.6251 18.4121C18.3928 17.9475 18.3705 15.5876 18.3928 15.6217H19.0898V15.6243Z" fill="#0000C4" stroke="black" stroke-width="0.0546535"/>
<path fill-rule="evenodd" clip-rule="evenodd" d="M19.0376 15.4263C19.0376 16.9529 19.5718 17.0547 19.5718 17.4618C19.3395 17.4618 19.0389 17.2393 19.0376 17.26C18.8053 16.9529 18.783 15.4022 18.8053 15.4263H19.0376Z" fill="#FFDF00" stroke="black" stroke-width="0.0443045"/>
<path fill-rule="evenodd" clip-rule="evenodd" d="M19.5023 15.4263C19.5141 16.3181 20.0771 17.0771 19.9682 17.26C19.8435 17.4221 19.5023 16.9529 19.0376 17.26C18.8053 16.9529 18.783 15.4022 18.8053 15.4263H19.5023Z" fill="#FFDF00" stroke="black" stroke-width="0.0443045"/>
<path fill-rule="evenodd" clip-rule="evenodd" d="M15.0611 15.8086L14.6575 16.1006L15.0611 16.3927L15.2627 16.2467L15.3635 16.3927L15.4643 16.6847L15.5656 16.3927L15.6664 16.2467H21.0749V15.9546H15.6659L15.5651 15.8078C15.5651 15.6617 15.5863 15.5157 15.6664 15.5157H16.0696C16.0696 15.3697 15.868 15.0776 15.4643 15.0776C15.0611 15.0776 14.8591 15.3697 14.8591 15.5157H15.2627C15.3424 15.5157 15.3635 15.6617 15.3635 15.8086L15.2627 15.9546L15.0607 15.8078L15.0611 15.8086Z" fill="#908F8A" stroke="black" stroke-width="0.0605495"/>
<path fill-rule="evenodd" clip-rule="evenodd" d="M16.2451 16.5165H19.7805V16.6957H16.2462L16.2451 16.5165ZM16.2451 16.3362H19.7805V16.5165H16.2462L16.2451 16.3362ZM16.2451 16.157H19.7805V16.3373H16.2462L16.2451 16.157ZM16.2451 15.9778H19.7805V16.157H16.2462L16.2451 15.9778ZM16.2451 15.7986H19.7805V15.9778H16.2462L16.2451 15.7986ZM16.2451 15.6184H19.7805V15.7986H16.2462L16.2451 15.6184ZM16.2451 15.4402H19.7805V15.6184H16.2462L16.2451 15.4402Z" fill="#B74D00" stroke="black" stroke-width="0.0409854"/>
<path fill-rule="evenodd" clip-rule="evenodd" d="M16.4136 15.4297L17.7054 16.6852H17.8901L16.5992 15.4307H16.4145L16.4136 15.4297Z" fill="#908F8A" stroke="black" stroke-width="0.0710005"/>
<path fill-rule="evenodd" clip-rule="evenodd" d="M16.4136 16.7231L17.7054 15.4676H17.8901L16.5992 16.7221H16.4145L16.4136 16.7231Z" fill="#908F8A" stroke="black" stroke-width="0.0710005"/>
<path fill-rule="evenodd" clip-rule="evenodd" d="M16.4495 15.4297V16.6852H16.6353V15.4297H16.4495Z" fill="#908F8A" stroke="black" stroke-width="0.070586"/>
<path fill-rule="evenodd" clip-rule="evenodd" d="M18.075 15.4297L19.3668 16.6852H19.5515L18.2606 15.4307H18.0759L18.075 15.4297Z" fill="#908F8A" stroke="black" stroke-width="0.0710005"/>
<path fill-rule="evenodd" clip-rule="evenodd" d="M18.075 16.7231L19.3668 15.4676H19.5515L18.2606 16.7221H18.0759L18.075 16.7231Z" fill="#908F8A" stroke="black" stroke-width="0.0710005"/>
<path fill-rule="evenodd" clip-rule="evenodd" d="M19.4045 15.4297V16.6852H19.5904V15.4297H19.4045Z" fill="#908F8A" stroke="black" stroke-width="0.070586"/>
<path fill-rule="evenodd" clip-rule="evenodd" d="M18.1145 15.4297V16.6852H18.3004V15.4297H18.1145Z" fill="#908F8A" stroke="black" stroke-width="0.070586"/>
<path fill-rule="evenodd" clip-rule="evenodd" d="M17.7395 15.4297V16.6852H17.9254V15.4297H17.7395Z" fill="#908F8A" stroke="black" stroke-width="0.070586"/>
<path fill-rule="evenodd" clip-rule="evenodd" d="M20.6171 11.8453C20.6171 13.8913 19.4078 15.5514 17.9201 15.5514C16.4324 15.5514 15.2231 13.8913 15.2231 11.8453C15.2231 9.79934 16.4303 8.13696 17.9201 8.13696C19.41 8.13696 20.6171 9.79701 20.6171 11.843V11.8453ZM20.2322 11.8453C20.2322 13.6635 19.1969 15.1399 17.9201 15.1399C16.6434 15.1399 15.6081 13.6635 15.6081 11.8453C15.6081 10.0249 16.6434 8.54849 17.9201 8.54849C19.1969 8.54849 20.2322 10.0249 20.2322 11.8453Z" fill="#FFDF00" stroke="black" stroke-width="0.0662132"/>
<path fill-rule="evenodd" clip-rule="evenodd" d="M18.9707 8.42991C18.6466 8.24159 18.2921 8.13696 17.9202 8.13696C17.5482 8.13696 17.1937 8.24159 16.8696 8.42759L17.0219 8.80889C17.2954 8.64036 17.6055 8.55164 17.9212 8.55164C18.2369 8.55164 18.5471 8.64036 18.8206 8.80889L18.9707 8.42759V8.42991Z" fill="#FFDF00" stroke="black" stroke-width="0.0662132"/>
<path fill-rule="evenodd" clip-rule="evenodd" d="M18.9782 15.1612C18.6542 15.3495 18.2996 15.4541 17.9277 15.4541C17.5558 15.4541 17.2013 15.3495 16.8772 15.1635L17.0294 14.7822C17.303 14.9507 17.6131 15.0394 17.9288 15.0394C18.2445 15.0394 18.5547 14.9507 18.8282 14.7822L18.9782 15.1635V15.1612Z" fill="#FFDF00" stroke="black" stroke-width="0.0662132"/>
<path fill-rule="evenodd" clip-rule="evenodd" d="M20.2351 11.8461C20.2351 13.6649 19.1963 15.1386 17.9213 15.1386C16.6463 15.1386 15.6113 13.6649 15.6113 11.8461C15.6113 10.0274 16.6463 8.54614 17.9213 8.54614C19.1963 8.54614 20.2351 10.0236 20.2351 11.8461Z" fill="#A7CFFF"/>
<path fill-rule="evenodd" clip-rule="evenodd" d="M20.2322 11.8455C20.2562 12.464 20.1322 12.7662 19.9734 13.4102C19.9321 13.48 19.7342 13.2591 19.6167 13.1498C19.4993 13.0406 19.4471 13.2475 19.2992 13.0801C19.1534 12.908 19.0599 13.1266 18.9512 12.9824C18.8424 12.8383 17.8354 12.8197 17.8354 12.8057C17.9354 12.7546 18.4487 12.8104 18.3661 12.5477C18.2726 12.2733 17.6918 12.5384 17.6135 12.1896C17.5592 11.8409 16.4477 11.8269 16.3673 11.7432C16.3999 11.8734 17.2329 11.9292 17.2133 12.2663C17.1938 12.4058 16.3934 12.4454 16.3151 12.5616C16.2498 12.7081 16.9458 12.5221 16.9697 12.7011C16.9697 12.7755 16.8675 12.7011 16.5065 12.8174C16.3238 12.8755 16.8414 13.0568 16.6457 13.1568C16.4499 13.2568 16.0301 13.301 16.0475 13.3428C16.1128 13.5521 17.0198 13.7985 16.9306 13.8334C16.6087 13.9868 16.439 14.0868 16.2846 14.1752C15.8321 13.4958 15.5951 12.6794 15.6082 11.8455C16.2977 11.5805 16.1519 11.5247 17.4265 11.5247C18.701 11.5247 19.123 11.5781 20.2322 11.8455Z" fill="#AFFF7B" stroke="black" stroke-width="0.0662132"/>
<path fill-rule="evenodd" clip-rule="evenodd" d="M20.2322 11.8454C20.0582 11.8454 19.8755 11.9244 19.6885 11.9244C19.4992 11.9244 19.3078 11.843 19.1121 11.843C18.9163 11.843 18.6923 11.95 18.4922 11.95C18.2899 11.95 18.1138 11.8454 17.9115 11.8454C17.7092 11.8454 17.5069 11.9244 17.3068 11.9244C17.1067 11.9244 16.9088 11.843 16.7152 11.843C16.5217 11.843 16.3303 11.9244 16.1454 11.9244C15.9605 11.9244 15.78 11.843 15.6082 11.843C15.6082 11.3897 15.6734 10.9572 15.7909 10.562C16.3781 10.6085 16.0301 10.1969 16.3781 10.1969C16.4797 10.1911 16.5813 10.2083 16.6762 10.2476C16.771 10.2869 16.857 10.3473 16.9284 10.4248C16.9806 10.4248 17.2416 10.1597 17.5352 10.1969C17.8267 10.2341 17.7201 10.8317 18.1094 10.8619C18.3052 11.02 18.4204 11.12 18.6901 11.1851C19.0751 11.2223 20.1778 11.1269 20.1844 11.1804C20.2161 11.4004 20.2321 11.6227 20.2322 11.8454Z" fill="white" stroke="black" stroke-width="0.0662132"/>
<path fill-rule="evenodd" clip-rule="evenodd" d="M18.2693 13.7633C18.2693 13.6607 18.3706 13.5923 18.3706 13.4285C18.3706 13.2647 18.2806 13.2611 18.2776 13.1081C18.2761 13.0451 18.3548 12.9821 18.3893 12.9749C18.4238 12.9677 18.4531 13.1081 18.4531 13.1387C18.4531 13.1693 18.4178 13.0631 18.3886 13.0613C18.3593 13.0595 18.2963 13.0721 18.2963 13.1027C18.2963 13.1639 18.4073 13.2395 18.3991 13.4447C18.3908 13.6463 18.3038 13.7075 18.3038 13.7687C18.3038 13.8299 18.3413 13.9991 18.3413 13.9991C18.3413 13.9991 18.2686 13.8641 18.2686 13.7615L18.2693 13.7633Z" fill="black" stroke="black" stroke-width="0.0342114"/>
<path fill-rule="evenodd" clip-rule="evenodd" d="M18.5932 13.7483C18.5932 13.6457 18.492 13.5773 18.492 13.4135C18.492 13.2497 18.582 13.2461 18.585 13.0931C18.5925 13.0211 18.4965 12.9743 18.462 12.9689C18.4275 12.9635 18.387 13.1129 18.387 13.1417C18.387 13.1705 18.4275 13.0481 18.4567 13.0463C18.486 13.0445 18.5662 13.0571 18.5662 13.0877C18.5662 13.1489 18.4552 13.2245 18.4635 13.4297C18.4717 13.6313 18.5587 13.6925 18.5587 13.7537C18.5587 13.8149 18.5212 13.9841 18.5212 13.9841C18.5212 13.9841 18.594 13.8491 18.594 13.7465L18.5932 13.7483Z" fill="black" stroke="black" stroke-width="0.0342114"/>
<path fill-rule="evenodd" clip-rule="evenodd" d="M18.4874 12.9338C18.4874 12.9826 18.4612 13.0238 18.4312 13.0238C18.4012 13.0238 18.3787 12.9826 18.3787 12.9301C18.3787 12.8776 18.4012 12.8401 18.4312 12.8401C18.4612 12.8401 18.4874 12.8813 18.4874 12.9338ZM19.1249 13.2713H19.1399V14.0026H19.1212L19.1249 13.2713ZM19.2787 13.2113H19.2974V13.9501H19.2787V13.2113Z" fill="black"/>
<path fill-rule="evenodd" clip-rule="evenodd" d="M19.2224 13.5451V13.5264L19.3724 13.5526V13.5714L19.2224 13.5451Z" fill="black"/>
<path fill-rule="evenodd" clip-rule="evenodd" d="M17.0788 13.7573C17.0788 13.7573 17.6443 14.0224 17.7683 14.1805C17.8901 14.3386 17.8423 14.3386 17.8423 14.3386L19.0972 14.392C19.0972 14.313 19.3191 14.313 19.3691 14.127C19.4191 13.9433 19.4191 13.8898 19.4191 13.8898L19.0255 14.0224L19.0472 13.7852H18.7036L18.6535 14.0224L17.914 13.9968L17.9641 13.3621L17.8162 13.3876L17.7944 13.9921C17.7683 13.9921 17.1028 13.8085 17.0767 13.7573H17.0788Z" fill="#B74D00" stroke="black" stroke-width="0.0662132"/>
<path fill-rule="evenodd" clip-rule="evenodd" d="M15.9409 9.97137C15.9409 9.97137 16.7609 9.71097 17.9441 9.72957C19.1273 9.74817 19.9473 10.0272 19.9299 10.0272C19.9125 10.0272 19.7037 9.59937 19.7037 9.59937C19.7037 9.59937 18.8685 9.35524 17.9267 9.33664C16.9871 9.31804 16.1671 9.52264 16.1867 9.54124L15.9409 9.97137Z" fill="#FEDE00" stroke="#FEDE00" stroke-width="0.0662132"/>
<path fill-rule="evenodd" clip-rule="evenodd" d="M17.475 9.36754L17.985 9.36004L17.9925 9.65629L17.4825 9.66754L17.475 9.36754ZM16.305 9.52879L16.125 9.82504L16.7325 9.75004L16.6837 9.46129L16.305 9.53629V9.52879ZM16.8187 9.41629L17.3288 9.37504L17.3513 9.66754L16.845 9.71254L16.8187 9.41629ZM18.6525 9.39004L18.1462 9.35254L18.1275 9.65254L18.6337 9.68254L18.6525 9.39004ZM19.7475 9.57754L19.9312 9.93754L19.3837 9.80254L19.4437 9.51379L19.7437 9.57379L19.7475 9.57754ZM19.305 9.46504L18.8025 9.40129L18.765 9.69379L19.2712 9.76129L19.305 9.46504Z" fill="#38A9F9"/>
<path fill-rule="evenodd" clip-rule="evenodd" d="M17.9441 10.1389L17.8897 9.82499L17.7244 10.0924L17.7853 9.77849L17.5395 9.95751L17.7048 9.69479L17.4134 9.75989L17.6635 9.58319L17.3699 9.52506L17.6635 9.46461L17.4134 9.28791L17.7048 9.35301L17.5373 9.09029L17.7853 9.26931L17.7244 8.95544L17.8897 9.22281L17.9441 8.90894L18.0006 9.22281L18.1637 8.95544L18.105 9.26931L18.3508 9.09029L18.1833 9.35301L18.4769 9.28791L18.2268 9.46461L18.5204 9.52506L18.2268 9.58319L18.4769 9.75989L18.1833 9.69479L18.3508 9.95751L18.105 9.77849L18.1659 10.0924L18.0006 9.82499L17.9441 10.1389Z" fill="#FFDF00" stroke="black" stroke-width="0.0662132"/>
<path fill-rule="evenodd" clip-rule="evenodd" d="M18.3783 9.32811C18.3783 9.50248 18.2372 9.64311 18.062 9.64311C17.8867 9.64311 17.7456 9.50248 17.7456 9.32811C17.7456 9.15373 17.8867 9.01123 18.062 9.01123C18.2372 9.01123 18.3783 9.15373 18.3783 9.32998V9.32811Z" fill="#FFDF00" stroke="black" stroke-width="0.0589464"/>
<path fill-rule="evenodd" clip-rule="evenodd" d="M18.0262 9.39761C18.0262 9.41636 17.9774 9.43511 17.9212 9.43511C17.8649 9.43511 17.8162 9.41636 17.8162 9.39761C17.8162 9.37886 17.8612 9.36011 17.9212 9.36011C17.9812 9.36011 18.0262 9.37511 18.0262 9.39761ZM18.2512 9.39761C18.2512 9.41636 18.2174 9.43511 18.1762 9.43511C18.1349 9.43511 18.0937 9.41636 18.0937 9.39761C18.0937 9.37511 18.1312 9.36011 18.1724 9.36011C18.2137 9.36011 18.2512 9.37511 18.2512 9.39761Z" fill="black"/>
<path d="M18.0153 9.52684L18.0372 9.53944C17.9846 9.50727 18.0086 9.51919 18.0912 9.60064C18.1384 9.57319 18.1474 9.54822 18.1767 9.51424" stroke="black" stroke-width="0.0668749"/>
<path d="M17.806 9.69247L17.8234 9.71107C17.782 9.66457 17.8016 9.68782 17.893 9.74827C17.98 9.7599 18.0691 9.72037 18.1213 9.65527" stroke="black" stroke-width="0.0662132"/>
<path fill-rule="evenodd" clip-rule="evenodd" d="M16.5525 10.3049C16.5525 10.3049 16.59 10.6049 16.3613 10.9799C16.1363 11.3512 16.17 11.2199 16.17 11.2199C16.17 11.2199 16.275 11.4262 16.2563 11.4262C16.2375 11.4262 16.08 11.2387 16.08 11.2387L15.8925 11.4449C15.8925 11.4449 16.065 11.1262 16.0463 11.1262C16.0275 11.1262 15.9938 11.0137 15.9938 11.0137L16.1325 10.9574C16.1325 10.9574 16.3425 10.5674 16.3425 10.5862C16.3425 10.6049 15.7163 11.0137 15.7163 11.0137L16.5525 10.3087V10.3049ZM16.6913 10.4174C16.6725 10.4174 16.7775 10.7174 16.8675 10.8674C16.9538 11.0174 16.9538 11.2012 16.9538 11.2012L17.25 11.3512L16.8675 10.7737L17.1113 10.8637L16.6913 10.4174ZM16.6913 11.2012C16.6913 11.2012 16.9013 11.4262 16.9163 11.5012C16.9313 11.5762 16.935 11.7412 16.935 11.7412L16.8488 11.5537L16.725 11.7224C16.725 11.7224 16.815 11.4599 16.7963 11.4412C16.7775 11.4224 16.6575 11.5349 16.6575 11.5349C16.6575 11.5349 16.71 11.3849 16.71 11.3699C16.71 11.3549 16.71 11.2574 16.6913 11.2012ZM15.645 11.7224C15.7163 11.6662 15.855 11.6287 15.855 11.6287C15.855 11.6287 15.7688 11.7787 15.75 11.7787C15.7313 11.7787 15.6825 11.7787 15.645 11.7224ZM18.0488 10.9049C18.0488 10.9049 18.5025 11.1824 18.5025 11.2012C18.5025 11.2199 18.2063 11.0699 18.2063 11.0699L18.0488 10.9049ZM17.2313 10.3237C17.2688 10.3424 17.895 10.8637 17.8763 10.8637C17.8575 10.8637 17.5988 10.7137 17.5988 10.7362V10.8637L17.4563 10.5674L17.4225 10.6799L17.235 10.3237H17.2313ZM17.3888 11.1637L17.5613 11.5162L17.7375 11.4787C17.7375 11.4787 17.4075 11.1637 17.3888 11.1637ZM17.9288 10.9387L17.9475 11.2762C17.9475 11.2762 18.0488 11.3699 18.0488 11.3512C18.0488 11.3324 17.9475 10.9574 17.9288 10.9387Z" fill="#B7E1FF"/>
<path fill-rule="evenodd" clip-rule="evenodd" d="M12.8474 6.35634C12.8474 6.35634 13.6349 5.92134 14.5312 5.59884C15.1906 5.35656 15.871 5.17579 16.5637 5.05884C16.8262 5.05884 17.2837 5.72634 17.3587 5.72634C17.4337 5.72634 17.7374 5.53884 18.1199 5.53884C18.5024 5.53884 18.7237 5.83884 18.8024 5.83884H19.4849C19.5599 5.83884 19.2562 5.09634 19.4849 5.13384C19.5974 5.15259 20.5649 5.30259 21.4649 5.59134C22.3649 5.88384 23.6399 6.40134 23.6399 6.40134C23.6399 6.40134 21.5587 6.67509 20.9999 6.59634C20.9249 6.63384 20.9999 7.08384 20.8874 6.88509C20.7149 6.84759 20.0737 6.74634 19.9612 6.74634C19.8487 6.74634 19.6349 6.87384 19.3312 6.94884C19.0312 7.02384 18.6487 7.13634 18.6487 7.13634L19.1437 7.91259L18.5362 8.21259C18.5362 8.21259 18.1574 7.32009 18.0037 7.32009C17.8499 7.32009 17.7787 7.95009 17.5874 7.91259C17.3999 7.87509 17.3249 7.32009 17.1712 7.17009C17.0212 7.02384 16.2187 6.96759 15.9149 6.89634C15.6149 6.82134 15.1237 6.76509 14.8574 6.69009C14.5949 6.61509 14.3249 6.87759 14.2124 6.87759C14.0999 6.87759 14.3624 6.65259 14.2499 6.61509C14.1374 6.57759 14.0624 6.72759 13.9874 6.72759C13.9124 6.72759 13.1137 6.57759 13.0387 6.54009C12.9637 6.50259 13.2262 6.35634 13.1512 6.35634H12.8474Z" fill="#984000"/>
<path fill-rule="evenodd" clip-rule="evenodd" d="M18.5048 5.985C18.5048 6.1917 18.3349 6.3594 18.1261 6.3594C17.9174 6.3594 17.7483 6.1917 17.7483 5.985C17.7483 5.7783 17.9174 5.61157 18.1261 5.61157C18.3349 5.61157 18.5048 5.77927 18.5048 5.985Z" fill="#808080" stroke="#772600" stroke-width="0.0732817"/>
<path fill-rule="evenodd" clip-rule="evenodd" d="M16.585 6.05615C16.6528 5.97695 16.7368 5.85695 16.9565 5.85695C17.0072 5.83655 17.0072 5.71655 17.1246 5.71655C17.2431 5.71655 17.2087 5.83655 17.2937 5.87735C17.3777 5.91695 18.0693 5.83655 18.0693 5.83655C18.0693 5.83655 18.1361 5.89655 18.1361 5.97695C18.1361 6.05735 18.0855 6.11615 18.0693 6.11615C18.0531 6.11615 17.3777 6.05615 17.3271 6.07655C17.2765 6.09695 17.2431 6.11615 17.1246 6.11615C17.0072 6.11615 16.9727 5.97695 16.8887 5.97695C16.8047 5.97695 16.7206 5.95655 16.585 6.05735V6.05615Z" fill="#984000" stroke="#772600" stroke-width="0.129012"/>
<path d="M18.6424 6.01461H18.9117C19.0089 6.01581 19.0423 6.05061 19.1314 6.05421H19.3673C19.4534 6.05061 19.4989 6.02661 19.586 6.01461C19.7328 6.01221 19.6832 5.99901 19.6539 5.89461C19.6275 5.81661 19.6235 5.77941 19.586 5.73501C19.5718 5.63901 19.5394 5.60541 19.5354 5.49501C19.5202 5.41101 19.4919 5.35461 19.5192 5.25501C19.5577 5.32341 19.5729 5.35101 19.6711 5.35581C19.7723 5.35581 19.8118 5.35221 19.8736 5.39541C19.9201 5.45421 19.9829 5.43501 20.0761 5.43501C20.153 5.45181 20.1662 5.49861 20.2269 5.53461C20.2988 5.58261 20.3454 5.59461 20.4456 5.59461C20.5266 5.61261 20.5975 5.62581 20.6481 5.65461C20.6917 5.71581 20.7595 5.73141 20.8506 5.73501C20.9013 5.73501 20.9418 5.72901 20.9853 5.71461C21.0633 5.71941 21.1422 5.71461 21.2384 5.71461C21.3012 5.80101 21.3154 5.83341 21.4237 5.83461C21.4986 5.89701 21.5614 5.90661 21.6262 5.93421H21.8793C21.9705 5.94261 21.9988 5.98701 22.0818 6.01461C22.1531 6.05276 22.2261 6.08601 22.3005 6.11421C22.373 6.12976 22.4466 6.13659 22.5202 6.13461C22.582 6.17301 22.6579 6.17541 22.7055 6.21381C22.7754 6.23181 22.8706 6.25341 22.9242 6.27381C23.0133 6.28821 23.0478 6.32181 23.1267 6.33381C23.1946 6.35781 23.1045 6.37701 23.0589 6.39381C22.9597 6.39021 22.9526 6.34581 22.8564 6.33381C22.8058 6.29901 22.7288 6.30381 22.6539 6.27381H22.6377C22.7045 6.32181 22.7693 6.35181 22.7389 6.43461C22.6529 6.43461 22.583 6.42141 22.503 6.41421C22.418 6.39501 22.3795 6.37461 22.2843 6.37461C22.3795 6.34701 22.4038 6.37701 22.4696 6.41421C22.4939 6.51021 22.4413 6.47421 22.3512 6.47421C22.2742 6.44181 22.2276 6.40221 22.1325 6.39381H21.93C22.0302 6.39861 22.0515 6.44301 22.1152 6.49461C22.1203 6.52581 22.1142 6.52341 22.0646 6.53421C22.012 6.48021 21.9441 6.46221 21.8621 6.43461C21.7821 6.43101 21.6981 6.42261 21.6262 6.39381C21.5766 6.39021 21.5847 6.32061 21.694 6.43461C21.7599 6.48021 21.7831 6.51861 21.7781 6.55461C21.691 6.52821 21.6485 6.48741 21.5928 6.45381C21.5171 6.42267 21.4369 6.40922 21.3569 6.41421C21.2698 6.38661 21.366 6.37101 21.4237 6.47421C21.5493 6.57981 21.4075 6.53421 21.3569 6.51381C21.2809 6.48861 21.202 6.45141 21.1372 6.43461C21.0865 6.41661 21.042 6.39981 20.9853 6.39381C21.0734 6.40341 21.1027 6.44061 21.1372 6.51381C21.2263 6.58581 21.1331 6.55101 21.0531 6.53421C21.0025 6.48141 20.9367 6.45381 20.9013 6.39381C20.8172 6.34461 20.8142 6.28581 20.8678 6.41421C20.881 6.45501 20.878 6.54381 20.884 6.55461C20.8223 6.47421 20.8354 6.45381 20.7666 6.45381C20.719 6.41541 20.6502 6.38541 20.6147 6.33381C20.5499 6.32661 20.5459 6.29901 20.4801 6.27381C20.5337 6.34941 20.6056 6.42381 20.6481 6.49461C20.7251 6.54501 20.7463 6.59061 20.8 6.63381C20.8213 6.67821 20.881 6.71421 20.8172 6.65421C20.7443 6.57021 20.6907 6.54981 20.5813 6.49461C20.5185 6.43461 20.4963 6.41061 20.4294 6.35421C20.3383 6.31941 20.3737 6.30021 20.4294 6.41421C20.4932 6.48381 20.5418 6.56061 20.5975 6.61461C20.6412 6.67643 20.6924 6.73022 20.7494 6.77421C20.7646 6.80061 20.8101 6.80541 20.7494 6.81381C20.6988 6.75861 20.6238 6.72381 20.5641 6.67341C20.4801 6.64581 20.4406 6.59421 20.3788 6.53421C20.3383 6.46341 20.2735 6.40941 20.2269 6.35421C20.1297 6.30861 20.2462 6.39741 20.2776 6.45381C20.2988 6.52701 20.3262 6.58581 20.3444 6.65421C20.3727 6.72021 20.2593 6.63861 20.2269 6.61461C20.1603 6.56346 20.0855 6.52914 20.0072 6.51381C19.9401 6.49789 19.8726 6.48468 19.8047 6.47421C19.7288 6.45021 19.8462 6.53181 19.8898 6.61461C19.9748 6.70941 19.8057 6.63141 19.7551 6.61461C19.6715 6.59777 19.5867 6.59094 19.502 6.59421C19.3936 6.60141 19.4716 6.61821 19.502 6.67341C19.5354 6.70461 19.5587 6.76941 19.5526 6.79341C19.4817 6.78141 19.421 6.75741 19.3329 6.75381C19.262 6.78141 19.178 6.77421 19.097 6.77421C19.0939 6.82461 19.1122 6.78141 19.1476 6.83421C19.2063 6.86181 19.2448 6.89541 19.2327 6.93381H18.7436C18.69 6.95061 18.7548 6.94221 18.7942 7.01421C18.772 7.07901 18.7436 7.05381 18.6758 7.05381C18.6302 7.03221 18.5381 7.02261 18.4905 6.99381C18.4429 6.99381 18.447 6.97941 18.4065 6.97341C18.5482 7.09341 18.4773 7.06341 18.5583 7.15341C18.5715 7.15941 18.6039 7.17381 18.5745 7.17381M17.4618 7.81341C17.4517 7.81341 17.4294 7.74861 17.395 7.69341C17.3707 7.62141 17.3403 7.66221 17.3099 7.55301C17.314 7.44021 17.317 7.42101 17.3099 7.31301C17.2411 7.25541 17.2117 7.23861 17.158 7.13301C17.073 7.04901 17.1712 6.90501 17.1874 6.79941C17.1125 6.78021 17.076 6.93741 16.9616 6.99381C16.8786 7.05981 16.9515 6.85701 16.911 6.73941C16.8837 6.57261 16.8016 6.82341 16.7713 6.89421C16.7156 6.93861 16.6984 6.99621 16.6194 6.91341C16.6194 6.85221 16.669 6.67941 16.6477 6.64581C16.5688 6.69261 16.4655 6.83181 16.3835 6.85341C16.3005 6.83301 16.4007 6.67581 16.4007 6.55941C16.3703 6.54741 16.2519 6.86901 16.2033 6.87141C16.1547 6.87381 16.1759 6.55941 16.1526 6.56661C16.1172 6.62661 16.0453 6.75141 15.9957 6.79461C15.8995 6.77901 16.0099 6.58461 16.024 6.51261C16.0402 6.42621 15.9339 6.67821 15.8772 6.69381C15.8357 6.73701 15.7537 6.76581 15.7254 6.77421C15.7578 6.69981 15.9177 6.54981 15.9076 6.50661C15.8134 6.51021 15.6707 6.65661 15.5907 6.67461C15.538 6.67461 15.4651 6.69501 15.456 6.69381C15.4601 6.59781 15.6525 6.51861 15.6828 6.45981C15.5887 6.47781 15.4074 6.57621 15.3548 6.65421C15.292 6.66981 15.213 6.69021 15.1523 6.65421C15.1614 6.56421 15.3031 6.39021 15.3345 6.33261C15.2485 6.37701 15.2059 6.41181 15.1148 6.43221C15.0976 6.45261 15.049 6.49581 15.0642 6.45261C15.0915 6.36861 15.132 6.33261 15.1654 6.27261C15.0895 6.28941 15.0612 6.34101 14.9802 6.39261C14.9285 6.39501 14.7807 6.57141 14.7311 6.57381C14.6471 6.65226 14.5491 6.70685 14.4445 6.73341C14.3676 6.75021 14.3301 6.76941 14.2927 6.81381C14.3311 6.73341 14.3899 6.65781 14.4445 6.61461C14.4779 6.54176 14.5316 6.48492 14.5964 6.45381C14.6157 6.42621 14.6683 6.41901 14.6126 6.41421C14.565 6.46461 14.484 6.52221 14.4445 6.55461C14.3929 6.59301 14.3332 6.63141 14.3089 6.61461C14.3362 6.52821 14.3848 6.50661 14.4273 6.43461C14.5164 6.36741 14.4273 6.41061 14.3595 6.43461C14.316 6.48021 14.238 6.51501 14.1742 6.55461C14.1033 6.57621 14.0557 6.62661 13.9717 6.65421C13.9717 6.68301 13.996 6.60261 14.0061 6.57381C14.075 6.48501 14.0932 6.45981 14.1742 6.43461C14.1945 6.39981 14.2188 6.41421 14.158 6.41421C14.1114 6.46221 14.0487 6.48861 13.9889 6.53421C13.9292 6.54981 13.8512 6.55461 13.7702 6.55461C13.6649 6.56901 13.674 6.57861 13.7702 6.51381C13.8239 6.45381 13.8684 6.46941 13.8715 6.39381C13.8077 6.44901 13.7297 6.48981 13.6518 6.53421C13.587 6.53661 13.5697 6.55461 13.4999 6.55461C13.5333 6.51381 13.5535 6.46221 13.6011 6.43461C13.672 6.34221 13.5566 6.41661 13.5333 6.43461H13.2802C13.2356 6.50181 13.2781 6.43461 13.3146 6.39381C13.3581 6.36741 13.4037 6.33261 13.3986 6.31461C13.348 6.36621 13.2903 6.39021 13.2468 6.43461C13.2002 6.45141 13.1455 6.45861 13.1455 6.47421C13.183 6.41061 13.2427 6.37101 13.2812 6.31461C13.3379 6.30021 13.3865 6.27861 13.3986 6.25461H13.1627H13.3308C13.4169 6.25461 13.4898 6.24501 13.5677 6.23421C13.7014 6.20781 13.5556 6.19461 13.4827 6.19461C13.4695 6.16341 13.5252 6.14661 13.5839 6.13461C13.6345 6.10581 13.6983 6.08061 13.753 6.05421C13.8013 6.03678 13.8468 6.01002 13.8877 5.97501C13.837 5.97741 13.837 5.99181 13.7864 5.99421C13.8624 5.98821 13.916 5.97501 14.0061 5.97501C14.0803 5.94601 14.1533 5.91277 14.2248 5.87541C14.2552 5.83221 14.2674 5.83461 14.1914 5.83461C14.2593 5.80941 14.3554 5.79621 14.4101 5.77461C14.4799 5.75728 14.5478 5.73071 14.6126 5.69541C14.6622 5.65581 14.6906 5.60901 14.7473 5.57541C14.8131 5.62821 14.8141 5.63541 14.9326 5.63541C15.0277 5.63421 15.0865 5.60661 15.1351 5.55501C15.208 5.53101 15.2211 5.49021 15.3042 5.47581C15.3822 5.49033 15.4611 5.49675 15.5401 5.49501C15.6211 5.46981 15.699 5.42301 15.7588 5.37501C15.8104 5.34501 15.8722 5.30181 15.9279 5.27541C15.9886 5.31261 16.0372 5.34261 16.1131 5.35581C16.1911 5.34141 16.2326 5.29581 16.2984 5.27541C16.339 5.2242 16.3921 5.18937 16.4503 5.17581C16.5485 5.11821 16.5414 5.19381 16.585 5.25501C16.6356 5.31741 16.7004 5.28741 16.7703 5.31501C16.8097 5.38701 16.8381 5.43501 16.8887 5.47461C16.9282 5.53221 16.9748 5.54661 17.0578 5.55501C17.0882 5.60301 17.0639 5.63661 17.1246 5.65461C17.1489 5.68581 17.1904 5.69781 17.2259 5.71461" stroke="#772600" stroke-width="0.0851963"/>
<path d="M18.448 7.30341V7.31301C18.448 7.28541 18.448 7.30101 18.4652 7.35381C18.4713 7.39701 18.4571 7.39221 18.4399 7.42341C18.4369 7.46781 18.4318 7.50021 18.4318 7.55301C18.4257 7.59621 18.4055 7.63701 18.3893 7.67301C18.3731 7.71021 18.3032 7.73181 18.3052 7.78341C18.2647 7.79661 18.2637 7.76541 18.2627 7.71261C18.2384 7.68021 18.2303 7.63581 18.2121 7.59261C18.202 7.55181 18.1777 7.52061 18.1615 7.47261C18.1372 7.42821 18.1159 7.41501 18.0946 7.36341C18.0855 7.33941 18.0876 7.30821 18.0693 7.29381C18.042 7.25181 18.0238 7.24581 17.9762 7.24341C17.9397 7.25301 17.9256 7.27221 17.8921 7.28301C17.8658 7.29381 17.8152 7.29021 17.7828 7.30341C17.7747 7.31901 17.799 7.32741 17.8081 7.36341C17.7858 7.38501 17.7777 7.42221 17.7656 7.45341C17.7453 7.48341 17.7322 7.49781 17.7231 7.54341C17.7372 7.57101 17.7251 7.60821 17.7069 7.63341C17.7008 7.67901 17.6815 7.70421 17.6724 7.74261C17.6461 7.76541 17.636 7.78581 17.6137 7.82301C17.5945 7.85541 17.5773 7.85301 17.5297 7.85301C17.4922 7.84101 17.4871 7.81701 17.4537 7.80261C17.4507 7.79061 17.4477 7.78701 17.4365 7.78341" stroke="#782600" stroke-width="0.0754596"/>
<path fill-rule="evenodd" clip-rule="evenodd" d="M17.535 7.70625C17.535 7.70625 17.52 7.89375 17.4 8.0175C17.28 8.14125 17.0325 8.28375 17.0325 8.28375C17.0325 8.28375 17.3662 8.12625 17.4 8.16C17.4375 8.1975 17.1862 8.47125 17.1862 8.47125C17.1862 8.47125 17.5125 8.1825 17.5537 8.1825C17.595 8.1825 17.6887 8.46375 17.7262 8.45625C17.76 8.44875 17.6512 8.1 17.6662 8.04375C17.6812 7.99125 17.6662 7.695 17.6662 7.695L17.5387 7.70625H17.535ZM18.3037 7.68375C18.3037 7.68375 18.2887 7.8825 18.1687 8.01375C18.0487 8.145 17.8012 8.29875 17.8012 8.29875C17.8012 8.29875 18.135 8.13 18.1687 8.1675C18.2062 8.205 17.955 8.4975 17.955 8.4975C17.955 8.4975 18.2812 8.19 18.3225 8.19C18.3637 8.19 18.4575 8.49 18.495 8.4825C18.5287 8.475 18.42 8.1 18.435 8.04375C18.45 7.98375 18.435 7.66875 18.435 7.66875L18.3037 7.68375ZM17.2275 5.88375C17.2275 5.9175 17.19 5.9475 17.1487 5.9475C17.1075 5.9475 17.0662 5.9175 17.0662 5.88C17.0662 5.8425 17.1037 5.8125 17.1487 5.8125C17.1937 5.8125 17.2275 5.8425 17.2275 5.88V5.88375Z" fill="#812E00"/>
</g>
</g>
<defs>
<filter id="filter0_d_138_38716" x="0" y="-2" width="36" height="36" filterUnits="userSpaceOnUse" color-interpolation-filters="sRGB">
<feFlood flood-opacity="0" result="BackgroundImageFix"/>
<feColorMatrix in="SourceAlpha" type="matrix" values="0 0 0 0 0 0 0 0 0 0 0 0 0 0 0 0 0 0 127 0" result="hardAlpha"/>
<feOffset dy="4"/>
<feGaussianBlur stdDeviation="3"/>
<feComposite in2="hardAlpha" operator="out"/>
<feColorMatrix type="matrix" values="0 0 0 0 0 0 0 0 0 0 0 0 0 0 0 0 0 0 0.16 0"/>
<feBlend mode="normal" in2="BackgroundImageFix" result="effect1_dropShadow_138_38716"/>
<feBlend mode="normal" in="SourceGraphic" in2="effect1_dropShadow_138_38716" result="shape"/>
</filter>
<clipPath id="clip0_138_38716">
<rect width="24" height="18" fill="white" transform="translate(6 3)"/>
</clipPath>
</defs>
</svg>
