<svg width="24" height="24" viewBox="0 0 24 24" fill="none" xmlns="http://www.w3.org/2000/svg">
<mask id="mask0_324_31971" style="mask-type:alpha" maskUnits="userSpaceOnUse" x="0" y="0" width="24" height="24">
<rect width="24" height="24" fill="currentColor"/>
</mask>
<g mask="url(#mask0_324_31971)">
<path d="M13 12.5999V8.9999C13 8.71657 12.9042 8.47907 12.7125 8.2874C12.5209 8.09574 12.2834 7.9999 12 7.9999C11.7167 7.9999 11.4792 8.09574 11.2875 8.2874C11.0959 8.47907 11 8.71657 11 8.9999V12.9749C11 13.1082 11.025 13.2374 11.075 13.3624C11.125 13.4874 11.2 13.5999 11.3 13.6999L14.1 16.4999C14.2834 16.6832 14.5167 16.7749 14.8 16.7749C15.0834 16.7749 15.3167 16.6832 15.5 16.4999C15.6834 16.3166 15.775 16.0832 15.775 15.7999C15.775 15.5166 15.6834 15.2832 15.5 15.0999L13 12.5999ZM12 21.9999C10.75 21.9999 9.57919 21.7624 8.48752 21.2874C7.39586 20.8124 6.44586 20.1707 5.63752 19.3624C4.82919 18.5541 4.18752 17.6041 3.71252 16.5124C3.23752 15.4207 3.00002 14.2499 3.00002 12.9999C3.00002 11.7499 3.23752 10.5791 3.71252 9.4874C4.18752 8.39574 4.82919 7.44574 5.63752 6.6374C6.44586 5.82907 7.39586 5.1874 8.48752 4.7124C9.57919 4.2374 10.75 3.9999 12 3.9999C13.25 3.9999 14.4209 4.2374 15.5125 4.7124C16.6042 5.1874 17.5542 5.82907 18.3625 6.6374C19.1709 7.44574 19.8125 8.39574 20.2875 9.4874C20.7625 10.5791 21 11.7499 21 12.9999C21 14.2499 20.7625 15.4207 20.2875 16.5124C19.8125 17.6041 19.1709 18.5541 18.3625 19.3624C17.5542 20.1707 16.6042 20.8124 15.5125 21.2874C14.4209 21.7624 13.25 21.9999 12 21.9999ZM2.05002 7.2999C1.86669 7.11657 1.77502 6.88324 1.77502 6.5999C1.77502 6.31657 1.86669 6.08324 2.05002 5.8999L4.90002 3.0499C5.08336 2.86657 5.31669 2.7749 5.60002 2.7749C5.88336 2.7749 6.11669 2.86657 6.30002 3.0499C6.48336 3.23324 6.57502 3.46657 6.57502 3.7499C6.57502 4.03324 6.48336 4.26657 6.30002 4.4499L3.45002 7.2999C3.26669 7.48324 3.03336 7.5749 2.75002 7.5749C2.46669 7.5749 2.23336 7.48324 2.05002 7.2999ZM21.95 7.2999C21.7667 7.48324 21.5334 7.5749 21.25 7.5749C20.9667 7.5749 20.7334 7.48324 20.55 7.2999L17.7 4.4499C17.5167 4.26657 17.425 4.03324 17.425 3.7499C17.425 3.46657 17.5167 3.23324 17.7 3.0499C17.8834 2.86657 18.1167 2.7749 18.4 2.7749C18.6834 2.7749 18.9167 2.86657 19.1 3.0499L21.95 5.8999C22.1334 6.08324 22.225 6.31657 22.225 6.5999C22.225 6.88324 22.1334 7.11657 21.95 7.2999ZM12 19.9999C13.95 19.9999 15.6042 19.3207 16.9625 17.9624C18.3209 16.6041 19 14.9499 19 12.9999C19 11.0499 18.3209 9.39574 16.9625 8.0374C15.6042 6.67907 13.95 5.9999 12 5.9999C10.05 5.9999 8.39586 6.67907 7.03752 8.0374C5.67919 9.39574 5.00002 11.0499 5.00002 12.9999C5.00002 14.9499 5.67919 16.6041 7.03752 17.9624C8.39586 19.3207 10.05 19.9999 12 19.9999Z" fill="currentColor"/>
</g>
</svg>
