<svg width="48" height="32" viewBox="0 0 48 32" fill="none" xmlns="http://www.w3.org/2000/svg">
<path d="M45.6059 8.87591H42.3942C41.927 8.87591 41.4599 9.05109 41.1095 9.34306L40.2336 5.89781C39.3577 2.45255 36.0292 0 32.1168 0H15.7081C11.7957 0 8.4672 2.45255 7.59128 5.89781L6.71537 9.40146C6.36501 9.0511 5.95625 8.87591 5.4307 8.87591H2.21902C1.28471 8.87591 0.583984 9.63503 0.583984 10.5109V10.9197C0.583984 12.2628 1.57669 13.489 2.91975 13.6642L3.85406 13.8394C2.51099 15.2409 1.75187 17.1095 1.75187 19.0949C1.75187 20.9051 2.3942 22.5985 3.50369 24V29.1387C3.50369 30.7153 4.78836 32 6.36501 32H9.4599C11.0365 32 12.3212 30.7153 12.3212 29.1387V26.8613C16.2336 27.3285 20.146 27.562 24.0584 27.562C27.9708 27.562 31.8833 27.3285 35.7957 26.8613V29.1387C35.7957 30.7153 37.0803 32 38.657 32H41.7519C43.3285 32 44.6132 30.7153 44.6132 29.1387V24C45.7811 22.6569 46.365 20.9051 46.365 19.0949C46.365 17.1095 45.6059 15.2409 44.2044 13.8394L45.0803 13.6642C46.4234 13.4307 47.4161 12.2628 47.4161 10.9197V10.5109C47.2409 9.57664 46.4818 8.87591 45.6059 8.87591ZM15.7081 3.38686H32.1168C34.4526 3.38686 36.4964 4.78832 36.9635 6.71533L38.1314 11.3285C28.6716 10.5693 19.1533 10.5693 9.69347 11.3285L10.8614 6.71533C11.3285 4.78832 13.3723 3.38686 15.7081 3.38686ZM35.0365 17.635L40.0584 16.6423C40.2336 16.6423 40.3504 16.6423 40.5256 16.7591C40.7592 16.9343 40.876 17.2263 40.876 17.635V18.9197C40.876 19.4453 40.584 19.9124 40.1752 19.9124H34.9781C34.6862 19.1533 34.7446 18.3942 35.0365 17.635ZM6.94895 18.9197V17.635C6.94895 17.2847 7.06574 16.9343 7.29931 16.7591C7.4161 16.7007 7.4745 16.6423 7.64968 16.6423H7.76647L12.7884 17.635C13.0803 18.3942 13.1387 19.1533 12.7884 19.9124H7.59128C7.29931 19.9124 6.94895 19.4453 6.94895 18.9197Z" fill="currentColor"/>
</svg>
