<svg width="23" height="22" viewBox="0 0 23 22" fill="none" xmlns="http://www.w3.org/2000/svg">
<path fill-rule="evenodd" clip-rule="evenodd" d="M3.5 2C3.23478 2 2.98043 2.10536 2.79289 2.29289C2.60536 2.48043 2.5 2.73478 2.5 3V12C2.5 12.2652 2.60536 12.5196 2.79289 12.7071C2.98043 12.8946 3.23478 13 3.5 13H4.5C5.05228 13 5.5 13.4477 5.5 14C5.5 14.5523 5.05228 15 4.5 15H3.5C2.70435 15 1.94129 14.6839 1.37868 14.1213C0.81607 13.5587 0.5 12.7956 0.5 12V3C0.5 2.20435 0.81607 1.44129 1.37868 0.87868C1.94129 0.31607 2.70435 0 3.5 0H12.5C13.2956 0 14.0587 0.31607 14.6213 0.87868C15.1839 1.44129 15.5 2.20435 15.5 3V4C15.5 4.55228 15.0523 5 14.5 5C13.9477 5 13.5 4.55228 13.5 4V3C13.5 2.73478 13.3946 2.48043 13.2071 2.29289C13.0196 2.10536 12.7652 2 12.5 2H3.5ZM10.5 9C9.94771 9 9.5 9.44771 9.5 10V19C9.5 19.5523 9.94771 20 10.5 20H19.5C20.0523 20 20.5 19.5523 20.5 19V10C20.5 9.44771 20.0523 9 19.5 9H10.5ZM7.5 10C7.5 8.34315 8.84315 7 10.5 7H19.5C21.1569 7 22.5 8.34315 22.5 10V19C22.5 20.6569 21.1569 22 19.5 22H10.5C8.84315 22 7.5 20.6569 7.5 19V10Z" fill="white"/>
</svg>
