<svg width="23" height="23" viewBox="0 0 23 23" fill="none" xmlns="http://www.w3.org/2000/svg">
<path fill-rule="evenodd" clip-rule="evenodd" d="M1.75759 3.00002C2.3202 2.43741 3.08326 2.12134 3.87891 2.12134H10.8789C11.4312 2.12134 11.8789 2.56905 11.8789 3.12134C11.8789 3.67362 11.4312 4.12134 10.8789 4.12134H3.87891C3.61369 4.12134 3.35934 4.2267 3.1718 4.41423C2.98426 4.60177 2.87891 4.85612 2.87891 5.12134V19.1213C2.87891 19.3866 2.98426 19.6409 3.1718 19.8284C3.35934 20.016 3.61369 20.1213 3.87891 20.1213H17.8789C18.1441 20.1213 18.3985 20.016 18.586 19.8284C18.7736 19.6409 18.8789 19.3866 18.8789 19.1213V12.1213C18.8789 11.5691 19.3266 11.1213 19.8789 11.1213C20.4312 11.1213 20.8789 11.5691 20.8789 12.1213V19.1213C20.8789 19.917 20.5628 20.68 20.0002 21.2427C19.4376 21.8053 18.6746 22.1213 17.8789 22.1213H3.87891C3.08326 22.1213 2.32019 21.8053 1.75759 21.2427C1.19498 20.68 0.878906 19.917 0.878906 19.1213V5.12134C0.878906 4.32569 1.19498 3.56263 1.75759 3.00002Z" fill="currentColor"/>
<path fill-rule="evenodd" clip-rule="evenodd" d="M19.8789 2C19.5815 2 19.2963 2.11814 19.086 2.32843L9.78189 11.6326L9.2533 13.747L11.3677 13.2184L20.6718 3.91421C20.8821 3.70392 21.0002 3.41871 21.0002 3.12132C21.0002 2.82393 20.8821 2.53872 20.6718 2.32843C20.4615 2.11814 20.1763 2 19.8789 2ZM17.6718 0.914214C18.2572 0.328852 19.0511 0 19.8789 0C20.7068 0 21.5007 0.328852 22.086 0.914214C22.6714 1.49957 23.0002 2.29349 23.0002 3.12132C23.0002 3.94915 22.6714 4.74307 22.086 5.32843L12.586 14.8284C12.4579 14.9566 12.2973 15.0475 12.1215 15.0915L8.12146 16.0915C7.78069 16.1767 7.4202 16.0768 7.17182 15.8284C6.92344 15.58 6.82359 15.2196 6.90878 14.8788L7.90878 10.8788C7.95274 10.703 8.04366 10.5424 8.17182 10.4142L17.6718 0.914214Z" fill="currentColor"/>
</svg>
