<svg width="24" height="19" viewBox="0 0 24 19" fill="none" xmlns="http://www.w3.org/2000/svg">
<path fill-rule="evenodd" clip-rule="evenodd" d="M11.9977 3.00002C11.3682 2.99854 10.7408 3.07025 10.1279 3.21371C9.59016 3.33958 9.05219 3.00569 8.92632 2.46794C8.80045 1.93019 9.13434 1.39222 9.67209 1.26634C10.4355 1.08765 11.2171 0.998275 12.0012 1.00003L12.0023 1.00003L12 2.00003V1.00003L12.0012 1.00003C15.9001 1.00047 18.8957 3.22667 20.8545 5.31608C21.8432 6.37062 22.5979 7.42134 23.1057 8.2075C23.3601 8.60154 23.5542 8.93167 23.686 9.16601C23.752 9.28325 23.8025 9.37672 23.8372 9.44246C23.8546 9.47534 23.8681 9.5013 23.8777 9.51985L23.889 9.54206L23.8925 9.54889L23.8936 9.55122C23.8936 9.55122 23.8944 9.55281 23 10L22 10C22 10 22 10 21.858 9.9978C21.7488 9.80927 21.6044 9.56938 21.4256 9.29255C20.9646 8.57871 20.2818 7.62943 19.3955 6.68397C17.6045 4.77359 15.1005 3.00003 12 3.00003L11.9977 3.00002ZM21.858 9.9978C21.3406 10.8982 20.7439 11.7511 20.0748 12.5462C19.7193 12.9688 19.7736 13.5996 20.1962 13.9552C20.6187 14.3108 21.2496 14.2565 21.6052 13.8339C22.479 12.7953 23.2421 11.6684 23.8819 10.4714C24.0348 10.1854 24.0395 9.84293 23.8944 9.55281L23 10L22.5 10C22.4727 10 22 10 22 10L21.858 9.9978ZM6.85478 3.45312C7.18996 3.89207 7.10584 4.51962 6.6669 4.8548C4.83188 6.25604 3.29462 8.00639 2.14257 10.0032C2.25165 10.1916 2.39592 10.4311 2.57441 10.7075C3.03543 11.4213 3.71817 12.3706 4.60454 13.3161C6.39395 15.2248 8.89512 16.9969 11.9918 17C13.9246 16.9667 15.7963 16.3167 17.3338 15.1447C17.773 14.8099 18.4005 14.8946 18.7353 15.3338C19.0701 15.773 18.9855 16.4005 18.5462 16.7353C16.6671 18.1677 14.3789 18.9613 12.0163 18.9999L12 19C8.10049 19 5.10448 16.7736 3.14546 14.684C2.15683 13.6294 1.40207 12.5787 0.894336 11.7926C0.63985 11.3985 0.445792 11.0684 0.313971 10.834C0.248023 10.7168 0.19754 10.6233 0.162753 10.5576C0.145357 10.5247 0.131875 10.4988 0.122338 10.4802L0.11099 10.458L0.107539 10.4512L0.10637 10.4488C0.10637 10.4488 0.105573 10.4472 1 10L0.105573 10.4472C-0.0397387 10.1566 -0.0347895 9.81351 0.118844 9.5272C1.43015 7.08345 3.24891 4.94839 5.4531 3.26525C5.89204 2.93007 6.5196 3.01418 6.85478 3.45312ZM10.6116 7.1983C10.9881 7.60236 10.9658 8.23513 10.5617 8.61164C10.3652 8.79473 10.2076 9.01554 10.0983 9.26087C9.98899 9.5062 9.93022 9.77104 9.92548 10.0396C9.92074 10.3081 9.97014 10.5749 10.0707 10.8239C10.1713 11.0729 10.321 11.2992 10.511 11.4891C10.7009 11.679 10.9271 11.8287 11.1761 11.9293C11.4252 12.0299 11.6919 12.0793 11.9604 12.0745C12.229 12.0698 12.4938 12.011 12.7392 11.9017C12.9845 11.7924 13.2053 11.6348 13.3884 11.4383C13.7649 11.0342 14.3977 11.0119 14.8017 11.3884C15.2058 11.7649 15.2281 12.3977 14.8516 12.8017C14.4854 13.1947 14.0438 13.51 13.5531 13.7286C13.0625 13.9472 12.5328 14.0648 11.9957 14.0742C11.4586 14.0837 10.9252 13.9849 10.4271 13.7837C9.92902 13.5826 9.47657 13.2831 9.09674 12.9033C8.71691 12.5235 8.41747 12.071 8.21629 11.5729C8.01511 11.0749 7.91631 10.5414 7.92579 10.0043C7.93527 9.46721 8.05282 8.93754 8.27145 8.44688C8.49007 7.95621 8.80528 7.51461 9.19828 7.14841C9.60234 6.77191 10.2351 6.79425 10.6116 7.1983Z" fill="currentColor"/>
<path fill-rule="evenodd" clip-rule="evenodd" d="M4.30385 0.2821C4.70034 -0.10237 5.33343 -0.0926305 5.7179 0.303855L21.7179 16.8039C22.1024 17.2003 22.0926 17.8334 21.6961 18.2179C21.2997 18.6024 20.6666 18.5926 20.2821 18.1961L4.2821 1.69615C3.89763 1.29966 3.90737 0.666571 4.30385 0.2821Z" fill="currentColor"/>
</svg>
