<svg width="24" height="24" viewBox="0 0 24 24" fill="none" xmlns="http://www.w3.org/2000/svg">
<path d="M10.7696 20.3534C11.5938 20.3534 12.418 20.3906 13.2422 20.3359C13.9922 20.2988 14.7812 20.2265 15.5136 20.0429C21.3377 18.6152 24.4509 12.1857 21.9041 6.74832C20.3651 3.46911 17.7284 1.60001 14.1211 1.21526C11.3555 0.922297 8.88293 1.74649 6.79509 3.61364C4.74436 5.4632 3.68189 7.76978 3.60962 10.5353C3.59205 11.1759 3.60962 11.8361 3.60962 12.4767C3.59009 13.8712 2.803 14.9512 1.46515 15.3711C1.44757 15.3711 1.41046 15.4083 1.39093 15.4083C1.90459 16.7637 3.99047 18.7597 5.29122 19.2539C6.92399 17.0195 10.2188 17.8086 10.7696 20.3534Z" fill="white"/>
<path d="M10.7325 21.58C10.5313 22.496 10.0372 23.1738 9.23056 23.5937C8.2052 24.1249 7.1603 24.1073 6.18962 23.4843C5.18184 22.8437 4.74239 21.873 4.81661 20.6816C4.83419 20.4805 4.7795 20.4062 4.61544 20.3145C2.83814 19.3809 1.42998 18.0801 0.459298 16.3224C0.275709 15.9747 0.129229 15.6075 0.0374341 15.2228C-0.0914689 14.6916 0.111651 14.4357 0.660465 14.381C1.3206 14.3068 1.90653 14.0509 2.19949 13.4279C2.32839 13.1525 2.40066 12.8244 2.40066 12.5119C2.43776 11.7248 2.40066 10.9377 2.43776 10.1487C2.63893 7.10776 3.90257 4.58243 6.21111 2.60397C8.3341 0.775887 10.8243 -0.0834659 13.625 0.00637557C18.5155 0.189965 22.7087 3.63324 23.697 8.44952C24.5935 12.8088 23.24 16.4532 19.7772 19.291C19.576 19.4551 19.3553 19.6211 19.117 19.7676C18.9881 19.8594 18.953 19.9317 19.0077 20.0781C19.4647 21.4707 18.8241 23.0077 17.5429 23.6679C15.8027 24.5292 13.789 23.6503 13.2578 21.7812C13.2402 21.707 13.1484 21.6172 13.0937 21.6172C12.3262 21.5625 11.5371 21.58 10.7325 21.58ZM10.7696 20.3535C11.5938 20.3535 12.418 20.3906 13.2422 20.3359C13.9922 20.2988 14.7812 20.2266 15.5136 20.043C21.3377 18.6153 24.4509 12.1858 21.9041 6.74839C20.365 3.46918 17.7284 1.60009 14.1211 1.21533C11.3555 0.922368 8.88291 1.74657 6.79508 3.61371C4.74435 5.46327 3.68187 7.76985 3.60961 10.5354C3.59203 11.176 3.60961 11.8362 3.60961 12.4768C3.59008 13.8713 2.80299 14.9513 1.46513 15.3712C1.44755 15.3712 1.41045 15.4083 1.39092 15.4083C1.90457 16.7638 3.99046 18.7598 5.29121 19.2539C6.92398 17.0196 10.2188 17.8087 10.7696 20.3535Z" fill="black"/>
<path d="M14.6328 15.5742C12.4707 15.4649 11.043 14.6035 10.1271 12.8829C9.90636 12.461 10.1095 12.0411 10.5294 11.9493C10.7852 11.8946 11.0235 12.0782 11.2071 12.3712C11.4454 12.7384 11.6837 13.1036 11.9942 13.3965C13.7149 15.0254 16.5351 14.5137 17.6171 12.4083C17.746 12.1524 17.9101 11.9513 18.2206 11.9513C18.6776 11.9688 18.9354 12.4278 18.7343 12.8477C18.1659 14.002 17.2695 14.8438 16.0605 15.2461C15.5293 15.4277 14.9804 15.5 14.6328 15.5742Z" fill="black"/>
<path d="M10.8047 9.56659C10.1446 9.56659 9.6153 9.03535 9.6153 8.37717C9.6153 7.71898 10.1465 7.18774 10.8047 7.18774C11.4629 7.18774 11.9941 7.71898 11.9941 8.37717C11.9961 9.01778 11.4649 9.56659 10.8047 9.56659Z" fill="black"/>
<path d="M19.1932 8.35764C19.1932 9.01778 18.6619 9.54706 18.0213 9.56659C17.3612 9.56659 16.8319 9.05293 16.8319 8.37717C16.8319 7.71703 17.3456 7.18774 18.0038 7.16821C18.6444 7.16821 19.1736 7.69945 19.1932 8.35764Z" fill="black"/>
</svg>
