<svg width="32" height="32" viewBox="0 0 32 32" fill="none" xmlns="http://www.w3.org/2000/svg">
<path d="M31.3714 13.9608L17.2915 1.29415C16.9381 0.976216 16.4776 0.800049 16 0.800049C15.5224 0.800049 15.0619 0.976216 14.7085 1.29415L0.628576 13.9608C0.300552 14.256 0.0858122 14.6544 0.0207799 15.0884C-0.0442524 15.5224 0.0444279 15.9653 0.271779 16.342C0.451153 16.6288 0.702542 16.8647 1.00145 17.0268C1.30035 17.1888 1.63658 17.2715 1.97737 17.2667H3.84008V29.3C3.84008 29.804 4.04236 30.2872 4.40243 30.6436C4.7625 30.9999 5.25085 31.2 5.76006 31.2H10.24C10.7492 31.2 11.2376 30.9999 11.5977 30.6436C11.9577 30.2872 12.16 29.804 12.16 29.3V22.3334C12.16 21.8295 12.3623 21.3462 12.7224 20.9899C13.0824 20.6335 13.5708 20.4334 14.08 20.4334H17.92C18.4292 20.4334 18.9176 20.6335 19.2776 20.9899C19.6377 21.3462 19.84 21.8295 19.84 22.3334V29.3C19.84 29.804 20.0423 30.2872 20.4023 30.6436C20.7624 30.9999 21.2508 31.2 21.76 31.2H26.2399C26.7491 31.2 27.2375 30.9999 27.5976 30.6436C27.9576 30.2872 28.1599 29.804 28.1599 29.3V17.2667H30.0226C30.3634 17.2715 30.6996 17.1888 30.9986 17.0268C31.2975 16.8647 31.5488 16.6288 31.7282 16.342C31.9556 15.9653 32.0443 15.5224 31.9792 15.0884C31.9142 14.6544 31.6994 14.256 31.3714 13.9608Z" fill="currentColor"/>
</svg>
