<svg width="20" height="20" viewBox="0 0 20 20" fill="none" xmlns="http://www.w3.org/2000/svg">
<g clip-path="url(#clip0_2199_21649)">
<path fill-rule="evenodd" clip-rule="evenodd" d="M10.0003 2.66667C5.95024 2.66667 2.66699 5.94991 2.66699 10C2.66699 14.0501 5.95024 17.3333 10.0003 17.3333C14.0504 17.3333 17.3337 14.0501 17.3337 10C17.3337 5.94991 14.0504 2.66667 10.0003 2.66667ZM0.666992 10C0.666992 4.84534 4.84567 0.666668 10.0003 0.666668C15.155 0.666668 19.3337 4.84534 19.3337 10C19.3337 15.1547 15.155 19.3333 10.0003 19.3333C4.84567 19.3333 0.666992 15.1547 0.666992 10Z" fill="currentColor"/>
<path fill-rule="evenodd" clip-rule="evenodd" d="M10.0003 9C10.5526 9 11.0003 9.44772 11.0003 10V13.3333C11.0003 13.8856 10.5526 14.3333 10.0003 14.3333C9.44804 14.3333 9.00033 13.8856 9.00033 13.3333V10C9.00033 9.44772 9.44804 9 10.0003 9Z" fill="currentColor"/>
<path fill-rule="evenodd" clip-rule="evenodd" d="M9.00033 6.66667C9.00033 6.11438 9.44804 5.66667 10.0003 5.66667H10.007C10.5593 5.66667 11.007 6.11438 11.007 6.66667C11.007 7.21895 10.5593 7.66667 10.007 7.66667H10.0003C9.44804 7.66667 9.00033 7.21895 9.00033 6.66667Z" fill="currentColor"/>
</g>
<defs>
<clipPath id="clip0_2199_21649">
<rect width="20" height="20" fill="white"/>
</clipPath>
</defs>
</svg>
