<svg width="23" height="26" viewBox="0 0 23 26" fill="none" xmlns="http://www.w3.org/2000/svg">
<path fill-rule="evenodd" clip-rule="evenodd" d="M3.61766 3.22228C3.32952 3.22228 3.05319 3.35105 2.84944 3.58026C2.6457 3.80947 2.53124 4.12034 2.53124 4.4445V21.5556C2.53124 21.8798 2.6457 22.1906 2.84944 22.4198C3.05319 22.6491 3.32952 22.7778 3.61766 22.7778H7.96334C8.56335 22.7778 9.04976 23.325 9.04976 24.0001C9.04976 24.6751 8.56335 25.2223 7.96334 25.2223H3.61766C2.75325 25.2223 1.92424 24.836 1.31301 24.1483C0.701784 23.4607 0.358398 22.5281 0.358398 21.5556V4.4445C0.358398 3.47204 0.701783 2.53941 1.31301 1.85177C1.92424 1.16414 2.75325 0.777832 3.61766 0.777832H7.96334C8.56335 0.777832 9.04976 1.32504 9.04976 2.00005C9.04976 2.67507 8.56335 3.22228 7.96334 3.22228H3.61766ZM14.8001 6.0247C15.2243 5.54739 15.9122 5.54739 16.3365 6.0247L21.7686 12.1358C22.1929 12.6131 22.1929 13.387 21.7686 13.8643L16.3365 19.9754C15.9122 20.4527 15.2243 20.4527 14.8001 19.9754C14.3758 19.4981 14.3758 18.7242 14.8001 18.2469L18.3775 14.2223H7.96334C7.36332 14.2223 6.87692 13.6751 6.87692 13.0001C6.87692 12.325 7.36332 11.7778 7.96334 11.7778H18.3775L14.8001 7.75318C14.3758 7.27588 14.3758 6.50201 14.8001 6.0247Z" fill="currentColor"/>
</svg>
