<svg width="34" height="32" viewBox="0 0 34 32" fill="none" xmlns="http://www.w3.org/2000/svg">
<path d="M30.5837 15.5739C30.4415 15.005 30.0859 14.5784 29.5882 14.365C28.3793 16.6761 27.206 18.9871 27.1349 19.1648C26.6727 20.0893 25.7483 20.6581 24.7173 20.6581C23.6862 20.6581 22.7618 20.0893 22.2996 19.1648L19.7397 14.1873H5.198C4.91356 14.1873 4.59358 14.2584 4.3447 14.4006L33.4636 28.0889L30.5837 15.5739Z" fill="currentColor"/>
<path d="M3.34914 15.8584L0.149262 29.7956C0.0425992 30.329 0.149262 30.8978 0.504804 31.3245C0.860346 31.7511 1.3581 32 1.92697 32H4.80686L10.7444 19.3072L3.34914 15.8584Z" fill="currentColor"/>
<path d="M12.3443 20.0894L6.76233 32H15.8287L23.1884 25.2092L12.3443 20.0894Z" fill="currentColor"/>
<path d="M24.9305 26.0269L18.424 32H32.0769C32.6102 32 33.1435 31.7511 33.499 31.3244C33.7479 31.0044 33.8901 30.6489 33.8901 30.2578L24.9305 26.0269Z" fill="currentColor"/>
<path d="M23.935 18.3472C24.255 19.0227 25.2505 19.0227 25.5705 18.3472C25.5705 18.3472 29.4459 10.8097 30.3348 9.03198C31.2236 7.25427 31.2592 5.26324 30.3348 3.41442C28.7704 0.356759 25.0372 -0.887638 21.944 0.676747C18.8507 2.24113 17.6775 6.08099 19.1707 9.03198C20.6996 11.983 23.935 18.3472 23.935 18.3472ZM24.7527 3.37887C26.3882 3.37887 27.7037 4.69437 27.7037 6.32986C27.7037 7.96536 26.3882 9.28086 24.7527 9.28086C23.1173 9.28086 21.8017 7.96536 21.8017 6.32986C21.8017 4.72993 23.1173 3.37887 24.7527 3.37887Z" fill="currentColor"/>
</svg>
