<svg width="18" height="19" viewBox="0 0 18 19" fill="none" xmlns="http://www.w3.org/2000/svg">
<path fill-rule="evenodd" clip-rule="evenodd" d="M1.46447 12.4645C2.40215 11.5268 3.67392 11 5 11H13C14.3261 11 15.5979 11.5268 16.5355 12.4645C17.4732 13.4021 18 14.6739 18 16V18C18 18.5523 17.5523 19 17 19C16.4477 19 16 18.5523 16 18V16C16 15.2044 15.6839 14.4413 15.1213 13.8787C14.5587 13.3161 13.7956 13 13 13H5C4.20435 13 3.44129 13.3161 2.87868 13.8787C2.31607 14.4413 2 15.2044 2 16V18C2 18.5523 1.55228 19 1 19C0.447715 19 0 18.5523 0 18V16C0 14.6739 0.526784 13.4021 1.46447 12.4645Z" fill="currentColor"/>
<path fill-rule="evenodd" clip-rule="evenodd" d="M9 2C7.34315 2 6 3.34315 6 5C6 6.65685 7.34315 8 9 8C10.6569 8 12 6.65685 12 5C12 3.34315 10.6569 2 9 2ZM4 5C4 2.23858 6.23858 0 9 0C11.7614 0 14 2.23858 14 5C14 7.76142 11.7614 10 9 10C6.23858 10 4 7.76142 4 5Z" fill="currentColor"/>
</svg>
