<svg width="23" height="22" viewBox="0 0 23 22" fill="none" xmlns="http://www.w3.org/2000/svg">
<path fill-rule="evenodd" clip-rule="evenodd" d="M22.2071 0.292921C22.5976 0.683445 22.5976 1.31661 22.2071 1.70713L11.2071 12.7071C10.8166 13.0977 10.1834 13.0977 9.7929 12.7071C9.40237 12.3166 9.40237 11.6834 9.7929 11.2929L20.7929 0.292921C21.1834 -0.0976032 21.8166 -0.0976032 22.2071 0.292921Z" fill="white"/>
<path fill-rule="evenodd" clip-rule="evenodd" d="M22.2071 0.292921C22.4787 0.564559 22.5708 0.967791 22.4439 1.33038L15.4439 21.3304C15.3084 21.7174 14.9504 21.9825 14.5408 21.9992C14.1311 22.0159 13.7527 21.7808 13.5862 21.4062L9.7424 12.7576L1.09387 8.91384C0.719186 8.74731 0.484122 8.36894 0.500836 7.95926C0.51755 7.54959 0.782654 7.19162 1.16965 7.05617L21.1697 0.0561695C21.5322 -0.0707359 21.9355 0.0212832 22.2071 0.292921ZM4.21108 8.11063L10.9061 11.0862C11.1324 11.1868 11.3133 11.3677 11.4138 11.5939L14.3894 18.289L19.87 2.63L4.21108 8.11063Z" fill="white"/>
</svg>
