<svg width="21" height="20" viewBox="0 0 21 20" fill="none" xmlns="http://www.w3.org/2000/svg">
<path fill-rule="evenodd" clip-rule="evenodd" d="M16.8636 1.81818C15.8595 1.81818 15.0455 2.63221 15.0455 3.63636C15.0455 4.64052 15.8595 5.45455 16.8636 5.45455C17.8678 5.45455 18.6818 4.64052 18.6818 3.63636C18.6818 2.63221 17.8678 1.81818 16.8636 1.81818ZM13.2273 3.63636C13.2273 1.62806 14.8553 0 16.8636 0C18.8719 0 20.5 1.62806 20.5 3.63636C20.5 5.64467 18.8719 7.27273 16.8636 7.27273C14.8553 7.27273 13.2273 5.64467 13.2273 3.63636Z" fill="white"/>
<path fill-rule="evenodd" clip-rule="evenodd" d="M4.13636 8.18178C3.13221 8.18178 2.31818 8.99581 2.31818 9.99996C2.31818 11.0041 3.13221 11.8181 4.13636 11.8181C5.14052 11.8181 5.95455 11.0041 5.95455 9.99996C5.95455 8.99581 5.14052 8.18178 4.13636 8.18178ZM0.5 9.99996C0.5 7.99165 2.12806 6.3636 4.13636 6.3636C6.14467 6.3636 7.77273 7.99165 7.77273 9.99996C7.77273 12.0083 6.14467 13.6363 4.13636 13.6363C2.12806 13.6363 0.5 12.0083 0.5 9.99996Z" fill="white"/>
<path fill-rule="evenodd" clip-rule="evenodd" d="M16.8636 14.5455C15.8595 14.5455 15.0455 15.3595 15.0455 16.3636C15.0455 17.3678 15.8595 18.1818 16.8636 18.1818C17.8678 18.1818 18.6818 17.3678 18.6818 16.3636C18.6818 15.3595 17.8678 14.5455 16.8636 14.5455ZM13.2273 16.3636C13.2273 14.3553 14.8553 12.7273 16.8636 12.7273C18.8719 12.7273 20.5 14.3553 20.5 16.3636C20.5 18.3719 18.8719 20 16.8636 20C14.8553 20 13.2273 18.3719 13.2273 16.3636Z" fill="white"/>
<path fill-rule="evenodd" clip-rule="evenodd" d="M6.61454 10.9151C6.86733 10.4813 7.42392 10.3345 7.85771 10.5873L14.0668 14.2055C14.5006 14.4583 14.6473 15.0149 14.3946 15.4487C14.1418 15.8825 13.5852 16.0292 13.1514 15.7764L6.9423 12.1582C6.5085 11.9055 6.36176 11.3489 6.61454 10.9151Z" fill="white"/>
<path fill-rule="evenodd" clip-rule="evenodd" d="M14.3852 4.55093C14.6382 4.98457 14.4919 5.54125 14.0582 5.79431L7.85821 9.41249C7.42458 9.66555 6.8679 9.51916 6.61484 9.08553C6.36177 8.65189 6.50816 8.09521 6.9418 7.84215L13.1418 4.22397C13.5754 3.97091 14.1321 4.11729 14.3852 4.55093Z" fill="white"/>
</svg>
