<svg width="21" height="22" viewBox="0 0 21 22" fill="none" xmlns="http://www.w3.org/2000/svg">
<path fill-rule="evenodd" clip-rule="evenodd" d="M0.5 5C0.5 4.44772 0.947715 4 1.5 4H19.5C20.0523 4 20.5 4.44772 20.5 5C20.5 5.55228 20.0523 6 19.5 6H1.5C0.947715 6 0.5 5.55228 0.5 5Z" fill="currentColor"/>
<path fill-rule="evenodd" clip-rule="evenodd" d="M8.5 2C8.23478 2 7.98043 2.10536 7.79289 2.29289C7.60536 2.48043 7.5 2.73478 7.5 3V5C7.5 5.55228 7.05228 6 6.5 6C5.94772 6 5.5 5.55228 5.5 5V3C5.5 2.20435 5.81607 1.44129 6.37868 0.87868C6.94129 0.31607 7.70435 0 8.5 0H12.5C13.2956 0 14.0587 0.31607 14.6213 0.87868C15.1839 1.44129 15.5 2.20435 15.5 3V5C15.5 5.55228 15.0523 6 14.5 6C13.9477 6 13.5 5.55228 13.5 5V3C13.5 2.73478 13.3946 2.48043 13.2071 2.29289C13.0196 2.10536 12.7652 2 12.5 2H8.5ZM3.5 4C4.05228 4 4.5 4.44772 4.5 5V19C4.5 19.2652 4.60536 19.5196 4.79289 19.7071C4.98043 19.8946 5.23478 20 5.5 20H15.5C15.7652 20 16.0196 19.8946 16.2071 19.7071C16.3946 19.5196 16.5 19.2652 16.5 19V5C16.5 4.44772 16.9477 4 17.5 4C18.0523 4 18.5 4.44772 18.5 5V19C18.5 19.7957 18.1839 20.5587 17.6213 21.1213C17.0587 21.6839 16.2957 22 15.5 22H5.5C4.70435 22 3.94129 21.6839 3.37868 21.1213C2.81607 20.5587 2.5 19.7957 2.5 19V5C2.5 4.44772 2.94772 4 3.5 4Z" fill="currentColor"/>
</svg>
