<svg width="20" height="20" viewBox="0 0 20 20" fill="none" xmlns="http://www.w3.org/2000/svg">
<path d="M15.7222 19.6667L9 12.8889C8.62963 13.037 8.25463 13.1481 7.875 13.2222C7.49537 13.2963 7.09259 13.3333 6.66667 13.3333C4.81482 13.3333 3.24074 12.6852 1.94444 11.3889C0.648148 10.0926 0 8.51852 0 6.66667C0 6 0.0925926 5.36574 0.277778 4.76389C0.462963 4.16204 0.722222 3.59259 1.05556 3.05556L5.11111 7.11111L7.11111 5.11111L3.05556 1.05556C3.59259 0.722222 4.16204 0.462963 4.76389 0.277778C5.36574 0.0925926 6 0 6.66667 0C8.51852 0 10.0926 0.648148 11.3889 1.94444C12.6852 3.24074 13.3333 4.81482 13.3333 6.66667C13.3333 7.09259 13.2963 7.49537 13.2222 7.875C13.1481 8.25463 13.037 8.62963 12.8889 9L19.6667 15.7222C19.8889 15.9444 20 16.213 20 16.5278C20 16.8426 19.8889 17.1111 19.6667 17.3333L17.3333 19.6667C17.1111 19.8889 16.8426 20 16.5278 20C16.213 20 15.9444 19.8889 15.7222 19.6667Z" fill="currentColor"/>
</svg>
