<svg width="23" height="23" viewBox="0 0 23 23" fill="none" xmlns="http://www.w3.org/2000/svg">
<path d="M11.5 23C17.8513 23 23 17.8513 23 11.5C23 5.14873 17.8513 0 11.5 0C5.14873 0 0 5.14873 0 11.5C0 17.8513 5.14873 23 11.5 23Z" fill="white"/>
<path d="M11.5 23C5.175 23 0 17.825 0 11.5C0 5.175 5.175 0 11.5 0C17.825 0 23 5.175 23 11.5C23 17.825 17.825 23 11.5 23ZM11.5 1.56818C6.01136 1.56818 1.56818 6.01136 1.56818 11.5C1.56818 16.9886 6.01136 21.4318 11.5 21.4318C16.9886 21.4318 21.4318 16.9886 21.4318 11.5C21.4318 6.01136 16.9886 1.56818 11.5 1.56818Z" fill="currentColor"/>
<path d="M16.1545 10.5771H12.4228V6.84536C12.4228 6.35798 12.0104 5.96289 11.4999 5.96289C10.9895 5.96289 10.5771 6.35798 10.5771 6.84536V10.5771H6.84536C6.35798 10.5771 5.96289 10.9895 5.96289 11.4999C5.96289 12.0104 6.35798 12.4228 6.84536 12.4228H10.5771V16.1545C10.5771 16.6419 10.9895 17.037 11.4999 17.037C12.0104 17.037 12.4228 16.6419 12.4228 16.1545V12.4228H16.1545C16.6419 12.4228 17.037 12.0104 17.037 11.4999C17.037 10.9895 16.6419 10.5771 16.1545 10.5771Z" fill="currentColor"/>
</svg>
