<svg width="21" height="23" viewBox="0 0 21 23" fill="none" xmlns="http://www.w3.org/2000/svg">
<path d="M8.34134 3.47237L8.90459 3.32748L8.90449 2.74589L8.90434 1.88203C8.90434 1.882 8.90434 1.88196 8.90434 1.88193C8.90434 1.88192 8.90434 1.88191 8.90434 1.8819C8.90441 1.25722 9.41265 0.75 10.0361 0.75C10.6617 0.75 11.1678 1.25483 11.1678 1.88203V2.74602V3.32749L11.7309 3.47237C14.6547 4.22455 16.8134 6.87889 16.8134 10.0358V15.0536C16.8134 15.9333 17.5234 16.6408 18.3988 16.6408C18.9069 16.6408 19.3223 17.0552 19.3223 17.5634C19.3223 18.0701 18.9086 18.4862 18.3956 18.4862H1.67667C1.16301 18.4862 0.75 18.0715 0.75 17.5634C0.75 17.0556 1.16354 16.6408 1.67346 16.6408C2.54793 16.6408 3.25892 15.9297 3.25892 15.0536V10.0358C3.25892 6.87787 5.41806 4.22435 8.34134 3.47237ZM12.0808 20.8228C11.7751 21.6557 10.975 22.25 10.0362 22.25C9.09743 22.25 8.29734 21.6557 7.99169 20.8228H12.0808Z" stroke="#4F4F4F" stroke-width="1.5"/>
</svg>
