<svg width="34" height="32" viewBox="0 0 34 32" fill="none" xmlns="http://www.w3.org/2000/svg">
<path d="M29.4595 3.32308H26.2554V1.23077C26.2554 0.904349 26.1257 0.591298 25.8949 0.360484C25.6641 0.12967 25.3511 0 25.0246 0C24.6982 0 24.3852 0.12967 24.1543 0.360484C23.9235 0.591298 23.7939 0.904349 23.7939 1.23077V3.32308H10.5139V1.23077C10.5139 0.904349 10.3842 0.591298 10.1534 0.360484C9.92257 0.12967 9.60952 0 9.2831 0C8.95667 0 8.64362 0.12967 8.41281 0.360484C8.182 0.591298 8.05233 0.904349 8.05233 1.23077V3.32308H4.54053C3.34366 3.32308 2.1958 3.79853 1.34948 4.64485C0.503167 5.49117 0.02771 6.63902 0.02771 7.8359V27.4872C0.02771 28.0798 0.144437 28.6666 0.371228 29.2142C0.598018 29.7617 0.93043 30.2592 1.34948 30.6782C1.76854 31.0973 2.26603 31.4297 2.81355 31.6565C3.36107 31.8833 3.9479 32 4.54053 32H29.4595C30.0521 32 30.639 31.8833 31.1865 31.6565C31.734 31.4297 32.2315 31.0973 32.6506 30.6782C33.0696 30.2592 33.402 29.7617 33.6288 29.2142C33.8556 28.6666 33.9723 28.0798 33.9723 27.4872V7.8359C33.9723 6.63902 33.4969 5.49117 32.6506 4.64485C31.8042 3.79853 30.6564 3.32308 29.4595 3.32308ZM8.72515 24.1313C8.06872 24.1313 7.42703 23.9366 6.88122 23.5719C6.33542 23.2072 5.91002 22.6889 5.65881 22.0824C5.40761 21.476 5.34188 20.8086 5.46994 20.1648C5.59801 19.521 5.91411 18.9296 6.37828 18.4654C6.84244 18.0013 7.43383 17.6852 8.07765 17.5571C8.72146 17.429 9.3888 17.4948 9.99526 17.746C10.6017 17.9972 11.1201 18.4226 11.4848 18.9684C11.8495 19.5142 12.0441 20.1559 12.0441 20.8123C12.043 21.6922 11.693 22.5358 11.0708 23.158C10.4486 23.7802 9.60506 24.1302 8.72515 24.1313ZM17.0739 24.1313C16.4174 24.1313 15.7757 23.9366 15.2299 23.5719C14.6841 23.2072 14.2587 22.6889 14.0075 22.0824C13.7563 21.476 13.6906 20.8086 13.8187 20.1648C13.9467 19.521 14.2628 18.9296 14.727 18.4654C15.1912 18.0013 15.7825 17.6852 16.4264 17.5571C17.0702 17.429 17.7375 17.4948 18.344 17.746C18.9504 17.9972 19.4688 18.4226 19.8335 18.9684C20.1982 19.5142 20.3928 20.1559 20.3928 20.8123C20.3918 21.6922 20.0417 22.5358 19.4195 23.158C18.7973 23.7802 17.9538 24.1302 17.0739 24.1313ZM25.4226 24.1313C24.7661 24.1313 24.1245 23.9366 23.5787 23.5719C23.0329 23.2072 22.6075 22.6889 22.3562 22.0824C22.105 21.476 22.0393 20.8086 22.1674 20.1648C22.2954 19.521 22.6115 18.9296 23.0757 18.4654C23.5399 18.0013 24.1313 17.6852 24.7751 17.5571C25.4189 17.429 26.0862 17.4948 26.6927 17.746C27.2992 17.9972 27.8175 18.4226 28.1822 18.9684C28.5469 19.5142 28.7416 20.1559 28.7416 20.8123C28.7405 21.6929 28.3899 22.5371 27.7668 23.1594C27.1437 23.7817 26.2991 24.1313 25.4185 24.1313H25.4226ZM31.5108 11.0769H2.48925V7.8359C2.48925 7.29186 2.70536 6.77011 3.09005 6.38542C3.47474 6.00073 3.9965 5.78462 4.54053 5.78462H8.05233V7.38462C8.05233 7.71104 8.182 8.02409 8.41281 8.2549C8.64362 8.48571 8.95667 8.61539 9.2831 8.61539C9.60952 8.61539 9.92257 8.48571 10.1534 8.2549C10.3842 8.02409 10.5139 7.71104 10.5139 7.38462V5.78462H23.7939V7.38462C23.7939 7.71104 23.9235 8.02409 24.1543 8.2549C24.3852 8.48571 24.6982 8.61539 25.0246 8.61539C25.3511 8.61539 25.6641 8.48571 25.8949 8.2549C26.1257 8.02409 26.2554 7.71104 26.2554 7.38462V5.78462H29.4595C30.0035 5.78462 30.5253 6.00073 30.91 6.38542C31.2947 6.77011 31.5108 7.29186 31.5108 7.8359V11.0769Z" fill="currentColor"/>
</svg>
