<svg width="20" height="18" viewBox="0 0 20 18" fill="none" xmlns="http://www.w3.org/2000/svg">
<path d="M0.75 3.49788H11.12C11.2799 4.07247 11.6237 4.57886 12.0986 4.93965C12.5735 5.30044 13.1536 5.49576 13.75 5.49576C14.3464 5.49576 14.9265 5.30044 15.4014 4.93965C15.8763 4.57886 16.2201 4.07247 16.38 3.49788H18.75C18.9489 3.49788 19.1397 3.41886 19.2803 3.27821C19.421 3.13756 19.5 2.94679 19.5 2.74788C19.5 2.54897 19.421 2.3582 19.2803 2.21755C19.1397 2.0769 18.9489 1.99788 18.75 1.99788H16.38C16.2201 1.42329 15.8763 0.916898 15.4014 0.556111C14.9265 0.195324 14.3464 0 13.75 0C13.1536 0 12.5735 0.195324 12.0986 0.556111C11.6237 0.916898 11.2799 1.42329 11.12 1.99788H0.75C0.551088 1.99788 0.360322 2.0769 0.21967 2.21755C0.0790175 2.3582 0 2.54897 0 2.74788C0 2.94679 0.0790175 3.13756 0.21967 3.27821C0.360322 3.41886 0.551088 3.49788 0.75 3.49788ZM13.75 1.49788C13.9972 1.49788 14.2389 1.57119 14.4445 1.70854C14.65 1.84589 14.8102 2.04112 14.9049 2.26953C14.9995 2.49793 15.0242 2.74927 14.976 2.99174C14.9277 3.23422 14.8087 3.45695 14.6339 3.63176C14.4591 3.80658 14.2363 3.92563 13.9939 3.97386C13.7514 4.02209 13.5001 3.99734 13.2716 3.90273C13.0432 3.80812 12.848 3.6479 12.7107 3.44234C12.5733 3.23678 12.5 2.99511 12.5 2.74788C12.5 2.41636 12.6317 2.09842 12.8661 1.864C13.1005 1.62958 13.4185 1.49788 13.75 1.49788Z" fill="#4F4F4F"/>
<path d="M18.75 7.99788H8.38C8.22005 7.42329 7.87633 6.9169 7.40139 6.55611C6.92646 6.19532 6.34643 6 5.75 6C5.15357 6 4.57354 6.19532 4.0986 6.55611C3.62367 6.9169 3.27995 7.42329 3.12 7.99788H0.75C0.551088 7.99788 0.360322 8.0769 0.21967 8.21755C0.0790175 8.3582 0 8.54897 0 8.74788C0 8.94679 0.0790175 9.13756 0.21967 9.27821C0.360322 9.41886 0.551088 9.49788 0.75 9.49788H3.12C3.27995 10.0725 3.62367 10.5789 4.0986 10.9396C4.57354 11.3004 5.15357 11.4958 5.75 11.4958C6.34643 11.4958 6.92646 11.3004 7.40139 10.9396C7.87633 10.5789 8.22005 10.0725 8.38 9.49788H18.75C18.9489 9.49788 19.1397 9.41886 19.2803 9.27821C19.421 9.13756 19.5 8.94679 19.5 8.74788C19.5 8.54897 19.421 8.3582 19.2803 8.21755C19.1397 8.0769 18.9489 7.99788 18.75 7.99788ZM5.75 9.99788C5.50277 9.99788 5.2611 9.92457 5.05554 9.78722C4.84998 9.64987 4.68976 9.45464 4.59515 9.22623C4.50054 8.99783 4.47579 8.74649 4.52402 8.50402C4.57225 8.26154 4.6913 8.03881 4.86612 7.864C5.04093 7.68918 5.26366 7.57013 5.50614 7.5219C5.74861 7.47367 5.99995 7.49842 6.22835 7.59303C6.45676 7.68764 6.65199 7.84786 6.78934 8.05342C6.92669 8.25898 7 8.50065 7 8.74788C7 9.0794 6.8683 9.39734 6.63388 9.63176C6.39946 9.86618 6.08152 9.99788 5.75 9.99788Z" fill="#4F4F4F"/>
<path d="M18.75 13.9979H16.38C16.2201 13.4233 15.8763 12.9169 15.4014 12.5561C14.9265 12.1953 14.3464 12 13.75 12C13.1536 12 12.5735 12.1953 12.0986 12.5561C11.6237 12.9169 11.2799 13.4233 11.12 13.9979H0.75C0.551088 13.9979 0.360322 14.0769 0.21967 14.2175C0.0790175 14.3582 0 14.549 0 14.7479C0 14.9468 0.0790175 15.1376 0.21967 15.2782C0.360322 15.4189 0.551088 15.4979 0.75 15.4979H11.12C11.2799 16.0725 11.6237 16.5789 12.0986 16.9396C12.5735 17.3004 13.1536 17.4958 13.75 17.4958C14.3464 17.4958 14.9265 17.3004 15.4014 16.9396C15.8763 16.5789 16.2201 16.0725 16.38 15.4979H18.75C18.9489 15.4979 19.1397 15.4189 19.2803 15.2782C19.421 15.1376 19.5 14.9468 19.5 14.7479C19.5 14.549 19.421 14.3582 19.2803 14.2175C19.1397 14.0769 18.9489 13.9979 18.75 13.9979ZM13.75 15.9979C13.5028 15.9979 13.2611 15.9246 13.0555 15.7872C12.85 15.6499 12.6898 15.4546 12.5952 15.2262C12.5005 14.9978 12.4758 14.7465 12.524 14.504C12.5722 14.2615 12.6913 14.0388 12.8661 13.864C13.0409 13.6892 13.2637 13.5701 13.5061 13.5219C13.7486 13.4737 13.9999 13.4984 14.2284 13.593C14.4568 13.6876 14.652 13.8479 14.7893 14.0534C14.9267 14.259 15 14.5007 15 14.7479C15 15.0794 14.8683 15.3973 14.6339 15.6318C14.3995 15.8662 14.0815 15.9979 13.75 15.9979Z" fill="#4F4F4F"/>
</svg>
