<svg width="14" height="14" viewBox="0 0 14 14" fill="none" xmlns="http://www.w3.org/2000/svg">
<path d="M13.9998 1.75007C13.9998 2.0722 13.7387 2.33343 13.4165 2.33343H0.583358C0.261235 2.33343 0 2.07234 0 1.75007V0.583358C0 0.261235 0.26109 0 0.583358 0H13.4165C13.7386 0 13.9998 0.261089 13.9998 0.583358V1.75007Z" fill="currentColor"/>
<path d="M2.91307 8.16644C2.59095 8.16644 2.32971 7.90535 2.32971 7.58308V6.41637C2.32971 6.09424 2.5908 5.83301 2.91307 5.83301H11.0796C11.4017 5.83301 11.663 6.0941 11.663 6.41637V7.58308C11.663 7.90521 11.4019 8.16644 11.0796 8.16644H2.91307Z" fill="currentColor"/>
<path d="M0.583358 11.667H13.4165C13.7386 11.667 13.9998 11.9281 13.9998 12.2503V13.4171C13.9998 13.7392 13.7387 14.0004 13.4165 14.0004H0.583358C0.261235 14.0004 0 13.7393 0 13.4171V12.2503C0 11.9282 0.261224 11.667 0.583358 11.667Z" fill="currentColor"/>
</svg>
