<svg width="168" height="140" viewBox="0 0 168 140" fill="none" xmlns="http://www.w3.org/2000/svg">
<path d="M75.7752 18.9902C75.7752 18.9902 108.234 -15.8831 141.349 8.88614C174.464 33.6553 187.749 100.071 110.481 131.365C53.8687 154.282 1.9924 130.47 0.049468 73.127C-1.75989 19.5867 46.4855 53.2793 75.7752 18.9902Z" fill="#D6D6D6"/>
<path d="M145.303 70C145.32 79.9659 142.903 89.7851 138.262 98.6043C138.042 99.023 137.817 99.4391 137.586 99.8528C127.087 118.738 106.929 131.515 83.7882 131.515C79.0882 131.518 74.4032 130.984 69.8244 129.924C69.4604 129.839 69.0977 129.752 68.7363 129.661C67.9033 129.451 67.0761 129.224 66.2547 128.98C40.823 121.432 22.273 97.8827 22.273 70C22.273 36.0211 49.814 8.48486 83.7882 8.48486C102.114 8.48486 118.575 16.5024 129.846 29.2206C130.864 30.3697 131.838 31.5561 132.769 32.7798C132.846 32.8752 132.921 32.9792 132.995 33.0795C134.686 35.3273 136.22 37.6888 137.586 40.1473C137.816 40.5602 138.041 40.9764 138.262 41.3957C142.903 50.2149 145.32 60.0342 145.303 70Z" fill="#F28B00"/>
<path d="M111.34 75.4673C103.843 68.4602 93.9995 64.5673 83.779 64.5673C73.5585 64.5673 63.7149 68.4602 56.2176 75.4673C55.7157 75.9407 55.4208 76.5958 55.3977 77.2885C55.3746 77.9813 55.6252 78.6549 56.0945 79.1612C56.5638 79.6676 57.2132 79.9651 57.8999 79.9884C58.5866 80.0117 59.2544 79.7588 59.7563 79.2855C66.2979 73.1666 74.8896 69.7668 83.8106 69.7668C92.7316 69.7668 101.323 73.1666 107.865 79.2855C108.113 79.5163 108.404 79.6955 108.722 79.8128C109.039 79.9301 109.376 79.9832 109.713 79.9691C110.051 79.955 110.382 79.874 110.689 79.7308C110.995 79.5875 111.271 79.3847 111.5 79.134C111.728 78.8833 111.906 78.5895 112.022 78.2696C112.139 77.9496 112.191 77.6097 112.177 77.2692C112.163 76.9288 112.083 76.5944 111.941 76.2852C111.799 75.976 111.598 75.6981 111.349 75.4673H111.34Z" fill="white"/>
<path d="M103.54 83.944C98.1867 79.6112 91.477 77.2244 84.5417 77.186C77.6064 77.1476 70.8697 79.4599 65.4674 83.7332C65.2053 83.9397 64.9872 84.1949 64.8255 84.4843C64.6638 84.7737 64.5617 85.0915 64.5251 85.4196C64.4884 85.7478 64.5178 86.0798 64.6118 86.3967C64.7057 86.7137 64.8622 87.0093 65.0724 87.2668C65.2826 87.5244 65.5424 87.7387 65.8369 87.8975C66.1314 88.0564 66.4549 88.1567 66.7889 88.1927C67.1228 88.2288 67.4607 88.1998 67.7833 88.1076C68.1059 88.0153 68.4068 87.8615 68.6689 87.6549C73.1007 84.1145 78.6427 82.1897 84.3545 82.2072C90.1636 82.211 95.7911 84.1966 100.275 87.8248C100.535 88.0354 100.833 88.1938 101.155 88.2909C101.476 88.388 101.814 88.4219 102.149 88.3908C102.484 88.3597 102.809 88.264 103.106 88.1094C103.403 87.9547 103.667 87.7441 103.881 87.4894C104.095 87.2348 104.256 86.9412 104.355 86.6254C104.454 86.3096 104.489 85.9777 104.457 85.6488C104.425 85.3198 104.328 85.0002 104.171 84.7082C104.013 84.4162 103.799 84.1576 103.54 83.947V83.944Z" fill="white"/>
<path d="M83.822 88.4024C81.6814 88.3914 79.5602 88.8366 77.5818 89.7123C75.6033 90.5879 73.8071 91.8764 72.2976 93.5029C72.054 93.7564 71.8599 94.0593 71.7265 94.394C71.5931 94.7287 71.5232 95.0884 71.5208 95.4523C71.5184 95.8162 71.5835 96.177 71.7124 96.5137C71.8413 96.8504 72.0315 97.1562 72.2717 97.4134C72.5119 97.6707 72.7975 97.8741 73.1118 98.012C73.426 98.1498 73.7628 98.2194 74.1023 98.2165C74.4419 98.2136 74.7776 98.1383 75.0898 97.9952C75.402 97.852 75.6845 97.6437 75.9209 97.3824C78.0199 95.1354 80.8655 93.8732 83.8324 93.8732C86.7993 93.8732 89.6449 95.1354 91.7439 97.3824C92.229 97.8697 92.872 98.1357 93.5369 98.1242C94.2017 98.1126 94.8363 97.8245 95.3065 97.3206C95.7767 96.8168 96.0456 96.1367 96.0564 95.4242C96.0671 94.7118 95.8189 94.0228 95.3642 93.5029C92.2948 90.2385 88.1464 88.4053 83.822 88.4024Z" fill="white"/>
<path d="M63.7586 54.1168C64.1777 54.5116 64.745 54.7332 65.3362 54.7332C65.9275 54.7332 66.4948 54.5116 66.9138 54.1168L69.7576 51.4251L72.6013 54.1168C72.8075 54.3166 73.0536 54.4758 73.3254 54.585C73.5971 54.6941 73.8889 54.7512 74.1841 54.7527C74.4793 54.7543 74.7719 54.7004 75.0449 54.5942C75.3179 54.4879 75.5659 54.3314 75.7745 54.1338C75.9831 53.9361 76.1482 53.7012 76.2602 53.4427C76.3721 53.1842 76.4288 52.9073 76.4268 52.6279C76.4249 52.3485 76.3643 52.0722 76.2487 51.8152C76.1331 51.5581 75.9647 51.3253 75.7534 51.1303L72.9096 48.4386L75.7534 45.7499C75.9612 45.5533 76.126 45.3198 76.2384 45.0628C76.3509 44.8058 76.4088 44.5304 76.4088 44.2523C76.4088 43.9741 76.3509 43.6987 76.2384 43.4418C76.126 43.1848 75.9612 42.9513 75.7534 42.7546C75.5456 42.558 75.2989 42.4019 75.0274 42.2955C74.7559 42.1891 74.465 42.1343 74.1711 42.1343C73.8772 42.1343 73.5863 42.1891 73.3148 42.2955C73.0433 42.4019 72.7966 42.558 72.5888 42.7546L69.7451 45.4463L66.9014 42.7546C66.4801 42.3679 65.9147 42.1539 65.3278 42.1591C64.741 42.1643 64.1799 42.3883 63.7663 42.7824C63.3528 43.1766 63.1201 43.7092 63.1186 44.2647C63.1172 44.8202 63.3471 45.3539 63.7586 45.7499L66.6024 48.4386L63.7586 51.1303C63.3415 51.527 63.1074 52.0639 63.1074 52.6235C63.1074 53.1832 63.3415 53.7201 63.7586 54.1168Z" fill="#D6D6D6"/>
<path d="M92.4896 54.1364C92.8869 54.5311 93.4247 54.7528 93.9854 54.7528C94.5461 54.7528 95.0839 54.5311 95.4811 54.1364L98.18 51.4438L100.879 54.1364C101.283 54.4953 101.809 54.6863 102.35 54.6702C102.89 54.6541 103.404 54.4321 103.786 54.0497C104.168 53.6674 104.388 53.1537 104.402 52.6143C104.416 52.0748 104.223 51.5505 103.861 51.1489L101.163 48.4564L103.861 45.7668C104.252 45.3706 104.47 44.8368 104.469 44.2811C104.468 43.7254 104.247 43.1926 103.854 42.7983C103.462 42.404 102.929 42.18 102.372 42.1748C101.815 42.1696 101.279 42.3836 100.879 42.7705L98.18 45.463L95.4811 42.7705C95.2854 42.5706 95.0518 42.4114 94.794 42.3022C94.5361 42.1929 94.259 42.1359 93.9789 42.1343C93.6988 42.1327 93.4211 42.1866 93.162 42.2929C92.9029 42.3992 92.6676 42.5558 92.4696 42.7535C92.2716 42.9512 92.1149 43.1862 92.0086 43.4448C91.9024 43.7033 91.8486 43.9804 91.8505 44.2599C91.8523 44.5394 91.9098 44.8157 92.0195 45.0728C92.1292 45.33 92.289 45.5629 92.4896 45.758L95.1885 48.4475L92.4896 51.1401C92.2916 51.3363 92.1344 51.5698 92.0271 51.8269C91.9198 52.084 91.8646 52.3597 91.8646 52.6382C91.8646 52.9167 91.9198 53.1925 92.0271 53.4496C92.1344 53.7067 92.2916 53.9401 92.4896 54.1364Z" fill="#D6D6D6"/>
</svg>
