<svg width="16" height="16" viewBox="0 0 16 16" fill="none" xmlns="http://www.w3.org/2000/svg">
<path d="M7.52915 1.08155C7.73301 0.649969 8.34705 0.649968 8.55091 1.08155L10.4955 5.19845C10.5779 5.37282 10.7435 5.49313 10.9348 5.51758L15.4511 6.09485C15.9246 6.15537 16.1143 6.73935 15.7669 7.0666L12.4524 10.1883C12.312 10.3205 12.2488 10.5151 12.2846 10.7046L13.1312 15.1783C13.22 15.6473 12.7232 16.0082 12.3046 15.7789L8.3115 13.5912C8.14238 13.4986 7.93768 13.4986 7.76856 13.5912L3.77546 15.7789C3.35686 16.0082 2.86009 15.6473 2.94885 15.1783L3.79545 10.7046C3.83131 10.5151 3.76806 10.3205 3.62768 10.1883L0.313197 7.0666C-0.0342656 6.73935 0.155479 6.15537 0.628935 6.09485L5.14527 5.51758C5.33655 5.49313 5.50215 5.37282 5.58451 5.19845L7.52915 1.08155Z" fill="currentColor" fill-opacity="0.5"/>
</svg>
