<svg width="16" height="16" viewBox="0 0 16 16" fill="none" xmlns="http://www.w3.org/2000/svg">
<path d="M7.98125 1.2951C7.98955 1.27755 7.99811 1.27072 8.00443 1.2669C8.01267 1.26193 8.02498 1.25786 8.04003 1.25786C8.05508 1.25786 8.06739 1.26193 8.07563 1.2669C8.08195 1.27072 8.09051 1.27755 8.09881 1.2951L10.0434 5.41201C10.1987 5.74067 10.5108 5.96746 10.8714 6.01355L15.3877 6.59082C15.407 6.59328 15.4161 6.59931 15.4217 6.60415C15.429 6.61045 15.4367 6.6209 15.4413 6.63521C15.446 6.64952 15.4459 6.66248 15.4437 6.67186C15.442 6.67905 15.4382 6.6893 15.4241 6.70261L12.1096 9.82427C11.845 10.0735 11.7257 10.4404 11.7933 10.7976L12.6399 15.2713C12.6435 15.2903 12.6406 15.3009 12.6378 15.3077C12.634 15.3166 12.6264 15.3271 12.6143 15.3359C12.6021 15.3448 12.5897 15.3487 12.5802 15.3495C12.5728 15.3502 12.5619 15.3497 12.5448 15.3404L8.55173 13.1527C8.23295 12.9781 7.84711 12.9781 7.52833 13.1527L3.53523 15.3404C3.5182 15.3497 3.50726 15.3502 3.4999 15.3495C3.49031 15.3487 3.47796 15.3448 3.46579 15.3359C3.45361 15.3271 3.44604 15.3166 3.4423 15.3077C3.43943 15.3009 3.43652 15.2903 3.44013 15.2713L4.28673 10.7976C4.35432 10.4404 4.23509 10.0735 3.97049 9.82427L0.656005 6.70262C0.64187 6.6893 0.638022 6.67906 0.636347 6.67186C0.634165 6.66248 0.634101 6.64952 0.63875 6.63521C0.6434 6.6209 0.651073 6.61045 0.658349 6.60414C0.663932 6.59931 0.673069 6.59328 0.692329 6.59082L5.20866 6.01355C5.56922 5.96746 5.88137 5.74067 6.03661 5.41201L7.98125 1.2951Z" stroke="currentColor"/>
</svg>
